<?xml version="1.0" encoding="UTF-8" standalone="no"?>
<!-- Created with Inkscape (http://www.inkscape.org/) -->

<svg
   width="530"
   height="240"
   viewBox="0 0 530 240"
   version="1.1"
   id="svg1"
   inkscape:version="1.4 (1:1.4+202410161351+e7c3feb100)"
   sodipodi:docname="Dassault_Systems.svg"
   xmlns:inkscape="http://www.inkscape.org/namespaces/inkscape"
   xmlns:sodipodi="http://sodipodi.sourceforge.net/DTD/sodipodi-0.dtd"
   xmlns="http://www.w3.org/2000/svg"
   xmlns:svg="http://www.w3.org/2000/svg">
  <sodipodi:namedview
     id="namedview1"
     pagecolor="#505050"
     bordercolor="#eeeeee"
     borderopacity="1"
     inkscape:showpageshadow="0"
     inkscape:pageopacity="0"
     inkscape:pagecheckerboard="0"
     inkscape:deskcolor="#505050"
     inkscape:document-units="px"
     showgrid="true"
     inkscape:zoom="1.1356135"
     inkscape:cx="267.25642"
     inkscape:cy="162.46725"
     inkscape:window-width="1862"
     inkscape:window-height="1011"
     inkscape:window-x="0"
     inkscape:window-y="0"
     inkscape:window-maximized="1"
     inkscape:current-layer="layer1">
    <inkscape:grid
       id="grid1"
       units="px"
       originx="0"
       originy="0"
       spacingx="1"
       spacingy="1"
       empcolor="#0099e5"
       empopacity="0.30196078"
       color="#0099e5"
       opacity="0.14901961"
       empspacing="10"
       enabled="true"
       visible="true" />
  </sodipodi:namedview>
  <defs
     id="defs1" />
  <g
     inkscape:label="Calque 1"
     inkscape:groupmode="layer"
     id="layer1">
    <rect
       style="fill:#005386;stroke:#0077ff;stroke-width:0.25;stroke-linejoin:round;fill-opacity:1"
       id="rect1"
       width="530"
       height="240"
       x="0"
       y="0" />
    <!-- Generator: Sketch 44 (41411) - http://www.bohemiancoding.com/sketch -->
    <title
       id="title1">logo</title>
    <desc
       id="desc1">Created with Sketch.</desc>
    <g
       id="Symbols"
       stroke="none"
       stroke-width="1"
       fill="none"
       fill-rule="evenodd"
       transform="matrix(4.020779,0,0,4.020779,49.40026,53.445526)"
       style="fill:#ffffff;fill-opacity:1">
      <g
         id="DESKTOP_menu_notif_final"
         transform="translate(-71,-13)"
         fill="#005386"
         style="fill:#ffffff;fill-opacity:1">
        <g
           id="MENU"
           style="fill:#ffffff;fill-opacity:1">
          <g
             id="logo"
             transform="translate(71,13)"
             style="fill:#ffffff;fill-opacity:1">
            <path
               d="m 15.248348,0.40829545 c 2.784346,-0.13156177 6.07898,0.46155953 6.692688,2.42623965 1.006092,3.2201658 -4.093034,7.9155729 -8.536538,10.2202729 -1.089068,0.56506 -1.74929,0.720128 -2.024283,0.681497 -0.262725,-0.03644 -0.303105,-0.298292 -0.217915,-0.478688 0.158453,-0.33838 0.874559,-1.028441 1.834138,-1.778088 5.001839,-3.9067655 6.628114,-6.7726985 5.68387,-7.9345238 -0.605701,-0.7436338 -3.141463,-1.2605878 -5.774342,-1.2605878 -0.714913,0 -2.59318,0.1658189 -2.78605,-0.4958166 -0.1572605,-0.5422823 2.364019,-1.24965466 5.128432,-1.38030535"
               id="Fill-1"
               style="fill:#ffffff;fill-opacity:1" />
            <path
               d="m 9.3584899,15.172966 c 2.3873651,-0.139461 5.2875011,0.277352 6.9163451,1.523869 0.809851,0.618844 1.379402,1.75846 1.049625,3.064802 -0.94011,3.707773 -4.449172,8.19327 -12.2463871,11.640167 -2.4793019,1.096071 -4.42878138,1.515434 -4.83801385,1.221409 -0.43981944,-0.316189 0.83885625,-2.762735 1.22365435,-3.574981 1.2449245,-2.629943 2.7999376,-5.190843 4.315926,-7.535196 0.5586515,-0.862852 1.4203601,-2.359064 2.2010308,-2.239414 0.6987539,0.107293 -0.119711,1.697655 -0.658147,2.708991 -0.9046007,1.696674 -3.3962077,6.410487 -2.574227,6.691958 1.8171117,0.623357 10.3426128,-5.862647 9.0855588,-9.474897 -0.582735,-1.676471 -4.2844603,-1.836135 -6.6157494,-1.836135 -1.0603481,0 -3.3763437,0.25048 -3.5044925,-0.561373 -0.1383445,-0.749283 3.5185555,-1.50347 5.6448768,-1.6292"
               id="Fill-3"
               style="fill:#ffffff;fill-opacity:1" />
            <path
               d="m 27.797409,11.201035 c 1.432991,0.258884 2.600968,0.459316 2.869295,1.064278 0.30093,0.685599 -1.259687,0.727074 -2.046184,0.743278 -3.769818,0.07311 -6.043007,0.14719 -6.156683,1.428105 -0.148025,1.648985 1.611003,3.308774 3.347888,5.636606 1.586943,2.124699 3.390953,4.22104 2.870864,6.176558 -0.648063,2.435475 -3.633999,2.950734 -6.476966,2.95112 -2.723363,0.0025 -5.30341,-0.434431 -6.387001,-0.649717 -1.350001,-0.2666 -1.149497,-0.933486 -0.789113,-1.148001 0.401182,-0.239593 2.696687,-0.24538 4.291825,-0.340098 1.312688,-0.07736 5.125222,-0.07523 5.719411,-1.051933 0.729136,-1.195263 -1.055696,-3.241834 -2.694247,-5.384859 -2.044963,-2.674104 -4.290953,-5.434437 -3.102402,-7.450529 1.538299,-2.608514 6.038125,-2.429687 8.553313,-1.974808"
               id="Fill-5"
               style="fill:#ffffff;fill-opacity:1" />
            <path
               d="m 86.554454,18.513269 c 3.027548,0 4.194262,-1.036076 4.673184,-3.429755 l 0.71768,-3.728605 c 0.048,-0.249458 -0.10127,-0.324987 -0.290975,-0.324987 h -1.464018 l -0.402267,2.145375 -0.230319,1.141778 -0.191991,0.992258 c -0.268119,1.351069 -1.14245,1.959915 -2.625457,1.959915 -1.631394,0 -2.067945,-0.593856 -1.81266,-1.959915 0,0 0.06294,-0.341323 0.08439,-0.443758 l 0.337567,-1.690278 0.403321,-2.145375 h -1.464897 c -0.18953,0 -0.367983,0.07553 -0.416332,0.324987 l -0.719614,3.728605 c -0.491405,2.629492 0.81684,3.429755 3.402388,3.429755 z M 35.12781,22.557444 c -0.219067,1.029734 0.586697,1.527496 2.223718,2.543585 1.789101,1.110259 2.1984,1.195013 2.033661,1.780413 -0.132038,0.471433 -0.601466,0.491036 -1.407406,0.491036 h -3.188419 c -0.362004,0 -0.572456,0.148752 -0.635398,0.472585 l -0.127994,0.653241 h 4.019852 c 1.840264,0 2.993264,-0.113966 3.412057,-1.238063 0.203243,-0.5485 0.201133,-1.115257 -0.29537,-1.67548 -0.252823,-0.285204 -0.62608,-0.535431 -1.140869,-0.825824 -2.297912,-1.298602 -2.897796,-1.448892 -2.752572,-2.07811 0.08211,-0.353622 0.32649,-0.366691 1.190625,-0.366691 h 2.69508 c 0.363587,0 0.574038,-0.148944 0.63698,-0.472394 l 0.132741,-0.682261 h -3.41065 c -1.931688,0 -3.091897,0.01134 -3.386036,1.397963 z m 17.727857,0 c -0.218012,1.029734 0.587576,1.527496 2.22319,2.543585 1.791387,1.110259 2.200159,1.195013 2.034189,1.780413 -0.132565,0.471433 -0.601817,0.491036 -1.407405,0.491036 h -3.18754 c -0.362357,0 -0.57316,0.148752 -0.636102,0.472585 l -0.126587,0.653241 h 4.0195 c 1.840088,0 2.992561,-0.113966 3.410475,-1.238063 0.205704,-0.5485 0.203243,-1.115257 -0.293261,-1.67548 -0.254405,-0.285204 -0.626607,-0.535431 -1.142978,-0.825824 -2.296858,-1.298602 -2.896214,-1.448892 -2.751342,-2.07811 0.08105,-0.353622 0.325611,-0.366691 1.190273,-0.366691 h 2.696663 c 0.361653,0 0.572808,-0.148944 0.635046,-0.472394 l 0.133796,-0.682261 h -3.411178 c -1.932039,0 -3.091544,0.01134 -3.386739,1.397963 z m 44.928493,0 c -0.21766,1.029734 0.587928,1.527496 2.22196,2.543585 1.79156,1.110259 2.20086,1.195013 2.03419,1.780413 -0.13098,0.471433 -0.60041,0.491036 -1.40547,0.491036 h -3.188598 c -0.362532,0 -0.572984,0.148752 -0.636101,0.472585 l -0.126588,0.653241 h 4.020207 c 1.83885,0 2.9915,-0.113966 3.4103,-1.238063 0.20464,-0.5485 0.20218,-1.115257 -0.29467,-1.67548 -0.25283,-0.285204 -0.62661,-0.535431 -1.14228,-0.825824 -2.29633,-1.298602 -2.897265,-1.448892 -2.750986,-2.07811 0.08,-0.353622 0.326486,-0.366691 1.190796,-0.366691 h 2.69614 c 0.36165,0 0.57193,-0.148944 0.63505,-0.472394 l 0.13362,-0.682261 h -3.4103 c -1.932394,0 -3.092075,0.01134 -3.38727,1.397963 z M 71.255316,17.111463 c 0.203595,-0.549076 0.201837,-1.11641 -0.29537,-1.675479 -0.253175,-0.285589 -0.625729,-0.535239 -1.142275,-0.827939 -2.297034,-1.298602 -2.896566,-1.44697 -2.752221,-2.07638 0.08176,-0.352661 0.327193,-0.367268 1.192383,-0.367268 h 2.694377 c 0.363235,0 0.573862,-0.148367 0.637156,-0.471048 l 0.132214,-0.68572 h -3.410827 c -1.932039,0 -3.091544,0.01249 -3.387618,1.400461 -0.217133,1.02858 0.588631,1.527688 2.22407,2.543969 1.790156,1.110067 2.198576,1.194437 2.035067,1.781181 -0.133444,0.471433 -0.602169,0.490075 -1.407054,0.490075 h -3.187891 c -0.363236,0 -0.574215,0.148945 -0.637157,0.472394 l -0.12606,0.654586 h 4.019325 c 1.839033,0 2.99344,-0.113582 3.411881,-1.238832 z m -8.56469,0 c 0.203243,-0.549076 0.201485,-1.11641 -0.29414,-1.675479 -0.254229,-0.285589 -0.62731,-0.535239 -1.142802,-0.827939 -2.29844,-1.298602 -2.897093,-1.44697 -2.751517,-2.07638 0.0807,-0.352661 0.324731,-0.367268 1.191503,-0.367268 h 2.693674 c 0.363411,0 0.574214,-0.148367 0.636101,-0.471048 l 0.134675,-0.68572 h -3.411881 c -1.93204,0 -3.091369,0.01249 -3.386036,1.400461 -0.218715,1.02858 0.587752,1.527688 2.222663,2.543969 1.789805,1.110067 2.19928,1.194437 2.034892,1.781181 -0.131334,0.471433 -0.601466,0.490075 -1.408284,0.490075 h -3.185958 c -0.363763,0 -0.573511,0.148945 -0.63786,0.472394 l -0.126587,0.654586 h 4.020555 c 1.839561,0 2.992209,-0.113582 3.411002,-1.238832 z m 37.388814,-6.081541 c -0.363065,0 -0.567714,0.123768 -0.621865,0.397634 l -0.143994,0.738763 h 2.882499 l -1.20152,6.183976 h 1.29259 c 0.36342,0 0.5751,-0.148944 0.64683,-0.520824 l 1.10219,-5.663152 h 2.40534 c 0.34125,0 0.46063,-0.150289 0.51971,-0.448562 l 0.13239,-0.687835 z m -62.80281,2.035252 c -0.181266,0 -0.318226,0.123576 -0.342137,0.248113 l -0.980525,5.037008 h 4.336496 c 2.428544,0 4.111804,-0.902122 4.637318,-3.70708 0.391717,-2.087719 -0.513207,-3.613293 -2.987462,-3.613293 h -5.244234 c 0,0 -0.01125,0.0517 -0.02163,0.09494 -0.118324,0.492381 -0.05609,1.035884 0.772886,1.035884 h 3.812038 c 1.833935,0 2.096076,0.917113 1.7295,2.532246 -0.359895,1.585728 -0.987381,2.402135 -2.364019,2.527056 H 38.01365 l 0.806467,-4.154874 z m 61.775689,4.599977 c 0.06224,-0.320566 -0.05028,-0.445103 -0.344247,-0.445103 h -3.927373 l 1.155989,-5.942206 c 0.02303,-0.124152 -0.06664,-0.24792 -0.224341,-0.24792 h -1.566695 l -1.422877,7.320373 h 6.195573 z M 87.35846,21.179853 h -1.658295 l -3.210396,2.852812 -2.100471,-2.852812 h -1.657064 c -0.271987,0 -0.421606,0.172583 -0.478043,0.470856 l -1.331805,6.847595 h 1.407581 c 0.295371,0 0.46011,-0.148175 0.513031,-0.421272 l 0.997403,-5.12503 1.617681,2.30758 c 0.04765,0.0984 0.183024,0.223128 0.386267,0.223128 h 0.728053 c 0.204298,0 0.386268,-0.124728 0.473824,-0.223128 l 2.51399,-2.30758 -0.997403,5.12503 c -0.05275,0.273097 0.05433,0.421272 0.350752,0.421272 h 1.406175 l 1.333387,-6.847595 c 0.05626,-0.298273 -0.02198,-0.470856 -0.294667,-0.470856 z m -17.539031,0.470856 -1.33075,6.847595 h 6.763457 l 0.142411,-0.731845 c 0.05907,-0.298849 -0.01389,-0.398017 -0.35462,-0.398017 h -4.492973 l 0.381521,-1.964144 h 3.971854 c 0.113929,0 0.195683,-0.0738 0.215902,-0.17412 l 0.151553,-0.779123 c 0.01846,-0.09821 -0.03516,-0.173929 -0.147861,-0.173929 h -3.973085 l 0.382047,-1.961068 h 4.335618 c 0.204298,0 0.407541,0 0.462571,-0.273097 l 0.16597,-0.863108 h -6.105379 c -0.317523,0 -0.505822,0.147023 -0.568236,0.470856 z m 20.083261,0 -1.331277,6.847595 h 6.765567 l 0.140653,-0.731845 c 0.05855,-0.298849 -0.01336,-0.398017 -0.353038,-0.398017 h -4.494203 l 0.382047,-1.964144 h 3.971503 c 0.113929,0 0.196738,-0.0738 0.214671,-0.17412 l 0.152608,-0.779123 c 0.01934,-0.09821 -0.03639,-0.173929 -0.147685,-0.173929 h -3.972558 l 0.380817,-1.961068 h 4.335969 c 0.205177,0 0.408069,0 0.460813,-0.273097 l 0.167904,-0.863108 h -6.105027 c -0.318402,0 -0.504591,0.147023 -0.568764,0.470856 z M 49.336186,21.42662 48.686723,24.758937 c -1.134188,0.348434 -4.073124,0.985723 -3.614245,-1.371056 l 0.429694,-2.208028 h -1.544718 c -0.181969,0 -0.319457,0.122038 -0.34372,0.246767 l -0.389783,2.01046 c -0.743174,3.821431 2.876346,3.299453 5.218915,2.581061 l -0.482438,2.480163 h 1.292598 c 0.363938,0 0.574214,-0.148175 0.647705,-0.519671 l 1.319849,-6.79878 h -1.565112 c -0.158586,0 -0.29625,0.122038 -0.319282,0.246767 z m 19.322331,0.439722 0.134851,-0.686105 H 61.7799 c -0.363235,0 -0.569115,0.123 -0.622388,0.395904 l -0.144344,0.737995 h 2.881972 l -1.200822,6.184168 h 1.293125 c 0.362532,0 0.572281,-0.148175 0.647178,-0.519671 l 1.100255,-5.664497 h 2.406039 c 0.34038,0 0.46011,-0.148944 0.517602,-0.447794 z M 48.487699,14.106824 c 0.274801,-1.426022 1.106409,-1.942427 2.590294,-1.942427 1.567926,0 1.979159,0.588282 1.72405,1.942427 0,0 -0.06435,0.338247 -0.08633,0.440298 -0.03059,0.151443 -0.100215,0.54504 -0.506701,0.54504 H 48.29676 l 0.190935,-0.985338 z m -2.208949,4.243471 h 1.384022 l 0.403145,-2.128462 h 4.312586 l -0.402442,2.128462 h 1.384549 c 0.182145,0 0.355148,-0.07495 0.402794,-0.323065 l 0.720141,-3.696317 c 0.527975,-2.804189 -1.055422,-3.399775 -3.189826,-3.399775 -2.55724,0 -4.016863,0.641902 -4.574199,3.399775 l -0.718911,3.696317 c -0.04782,0.248113 0.09582,0.323065 0.278141,0.323065 z m 29.108237,-4.243471 c 0.275679,-1.426022 1.106057,-1.942427 2.589942,-1.942427 1.568629,0 1.978807,0.588282 1.724577,1.942427 0,0 -0.06382,0.338247 -0.08685,0.440298 -0.03077,0.151443 -0.100216,0.54504 -0.505998,0.54504 H 75.19535 l 0.191639,-0.985338 z m -2.208949,4.243471 h 1.384373 l 0.403849,-2.128462 h 4.31153 l -0.402969,2.128462 h 1.385252 c 0.181794,0 0.355324,-0.07495 0.403146,-0.323065 l 0.718559,-3.696317 c 0.53026,-2.804189 -1.05384,-3.399775 -3.188419,-3.399775 -2.557944,0 -4.017567,0.641902 -4.575255,3.399775 l -0.718559,3.696317 c -0.04712,0.248113 0.09547,0.323065 0.278493,0.323065 z"
               id="Fill-6"
               style="fill:#ffffff;fill-opacity:1" />
          </g>
        </g>
      </g>
    </g>
  </g>
</svg>
