<?xml version="1.0" encoding="UTF-8" standalone="no"?>
<!-- Created with Inkscape (http://www.inkscape.org/) -->

<svg
   width="500"
   height="310"
   viewBox="0 0 132.29166 82.020833"
   version="1.1"
   id="svg1"
   inkscape:version="1.3.2 (091e20e, 2023-11-25, custom)"
   sodipodi:docname="Games.svg"
   inkscape:export-filename="..\KGameX Website\Images\Games.png"
   inkscape:export-xdpi="96"
   inkscape:export-ydpi="96"
   xmlns:inkscape="http://www.inkscape.org/namespaces/inkscape"
   xmlns:sodipodi="http://sodipodi.sourceforge.net/DTD/sodipodi-0.dtd"
   xmlns="http://www.w3.org/2000/svg"
   xmlns:svg="http://www.w3.org/2000/svg">
  <sodipodi:namedview
     id="namedview1"
     pagecolor="#505050"
     bordercolor="#eeeeee"
     borderopacity="1"
     inkscape:showpageshadow="0"
     inkscape:pageopacity="0"
     inkscape:pagecheckerboard="0"
     inkscape:deskcolor="#505050"
     inkscape:document-units="px"
     showguides="true"
     inkscape:zoom="0.70710678"
     inkscape:cx="184.55487"
     inkscape:cy="242.53762"
     inkscape:window-width="1304"
     inkscape:window-height="745"
     inkscape:window-x="-8"
     inkscape:window-y="-8"
     inkscape:window-maximized="1"
     inkscape:current-layer="layer1">
    <sodipodi:guide
       position="39.687499,82.020833"
       orientation="-1,0"
       id="guide11"
       inkscape:locked="false"
       inkscape:label=""
       inkscape:color="rgb(0,134,229)" />
    <sodipodi:guide
       position="119.0625,82.020833"
       orientation="-1,0"
       id="guide12"
       inkscape:locked="false"
       inkscape:label=""
       inkscape:color="rgb(0,134,229)" />
    <sodipodi:guide
       position="52.916665,82.020833"
       orientation="-1,0"
       id="guide13"
       inkscape:locked="false"
       inkscape:label=""
       inkscape:color="rgb(0,134,229)" />
    <sodipodi:guide
       position="105.83333,82.020833"
       orientation="-1,0"
       id="guide14"
       inkscape:locked="false"
       inkscape:label=""
       inkscape:color="rgb(0,134,229)" />
    <sodipodi:guide
       position="0,48.947915"
       orientation="0,1"
       id="guide15"
       inkscape:locked="false"
       inkscape:label=""
       inkscape:color="rgb(0,134,229)" />
    <sodipodi:guide
       position="0,7.9374998"
       orientation="0,1"
       id="guide16"
       inkscape:locked="false"
       inkscape:label=""
       inkscape:color="rgb(0,134,229)" />
    <sodipodi:guide
       position="39.687499,7.9374998"
       orientation="-0.95170862,0.30700278"
       id="guide17"
       inkscape:locked="false" />
    <sodipodi:guide
       position="0,-115.09375"
       orientation="0,1"
       id="guide18"
       inkscape:locked="false"
       inkscape:label=""
       inkscape:color="rgb(0,134,229)" />
    <sodipodi:guide
       position="-8.5208259e-07,-115.09375"
       orientation="-0.9822057,0.18780829"
       id="guide19"
       inkscape:locked="false" />
    <sodipodi:guide
       position="-8.5208257e-07,-115.09375"
       orientation="-0.90680514,0.42155004"
       id="guide20"
       inkscape:locked="false" />
    <sodipodi:guide
       position="119.0625,7.9374998"
       orientation="-0.95170859,-0.30700286"
       id="guide21"
       inkscape:locked="false" />
    <sodipodi:guide
       position="158.75001,-115.09375"
       orientation="-0.98220569,-0.18780838"
       id="guide22"
       inkscape:locked="false" />
    <sodipodi:guide
       position="158.75001,-115.09375"
       orientation="-0.9068051,-0.42155012"
       id="guide23"
       inkscape:locked="false" />
  </sodipodi:namedview>
  <defs
     id="defs1">
    <inkscape:path-effect
       effect="fillet_chamfer"
       id="path-effect26"
       is_visible="true"
       lpeversion="1"
       nodesatellites_param="F,0,0,1,0,2.645833,0,1 @ F,0,0,1,0,0,0,1 @ F,0,1,1,0,2.645833,0,1 @ F,0,1,1,0,2.645833,0,1 @ F,0,0,1,0,0,0,1 @ F,0,1,1,0,2.645833,0,1 @ F,0,1,1,0,2.645833,0,1 @ F,0,0,1,0,0,0,1 @ F,0,1,1,0,2.645833,0,1 @ F,0,1,1,0,2.645833,0,1 @ F,0,0,1,0,0,0,1 @ F,0,1,1,0,2.645833,0,1"
       radius="0"
       unit="px"
       method="auto"
       mode="F"
       chamfer_steps="1"
       flexible="false"
       use_knot_distance="true"
       apply_no_radius="true"
       apply_with_radius="true"
       only_selected="false"
       hide_knots="false" />
    <inkscape:path-effect
       effect="skeletal"
       id="path-effect11"
       is_visible="true"
       lpeversion="1"
       pattern="M 0,4.9921381 C 0,2.2364779 2.2364779,0 4.9921381,0 c 2.7556603,0 4.9921381,2.2364779 4.9921381,4.9921381 0,2.7556603 -2.2364778,4.9921381 -4.9921381,4.9921381 C 2.2364779,9.9842762 0,7.7477984 0,4.9921381 Z"
       copytype="single_stretched"
       prop_scale="1"
       scale_y_rel="false"
       spacing="0"
       normal_offset="0"
       tang_offset="0"
       prop_units="false"
       vertical_pattern="false"
       hide_knot="false"
       fuse_tolerance="0" />
    <inkscape:path-effect
       effect="powerstroke"
       id="path-effect9"
       is_visible="true"
       lpeversion="1.3"
       scale_width="1"
       interpolator_type="CubicBezierJohan"
       interpolator_beta="0.2"
       start_linecap_type="zerowidth"
       end_linecap_type="zerowidth"
       offset_points="0,10"
       linejoin_type="extrp_arc"
       miter_limit="4"
       not_jump="false"
       sort_points="true"
       message="&lt;b&gt;Ctrl + clic&lt;/b&gt; puis déplacement sur un nœud existant" />
    <inkscape:path-effect
       effect="powerstroke"
       id="path-effect7"
       is_visible="true"
       lpeversion="1.3"
       scale_width="1"
       interpolator_type="CubicBezierJohan"
       interpolator_beta="0.2"
       start_linecap_type="zerowidth"
       end_linecap_type="zerowidth"
       offset_points="0,10"
       linejoin_type="extrp_arc"
       miter_limit="4"
       not_jump="false"
       sort_points="true"
       message="&lt;b&gt;Ctrl + clic&lt;/b&gt; puis déplacement sur un nœud existant" />
    <inkscape:path-effect
       effect="powerstroke"
       id="path-effect5"
       is_visible="true"
       lpeversion="1.3"
       scale_width="1"
       interpolator_type="CubicBezierJohan"
       interpolator_beta="0.2"
       start_linecap_type="zerowidth"
       end_linecap_type="zerowidth"
       offset_points="0,10"
       linejoin_type="extrp_arc"
       miter_limit="4"
       not_jump="false"
       sort_points="true"
       message="&lt;b&gt;Ctrl + clic&lt;/b&gt; puis déplacement sur un nœud existant" />
    <inkscape:path-effect
       effect="powerstroke"
       id="path-effect3"
       is_visible="true"
       lpeversion="1.3"
       scale_width="1"
       interpolator_type="CubicBezierJohan"
       interpolator_beta="0.2"
       start_linecap_type="zerowidth"
       end_linecap_type="zerowidth"
       offset_points="0,10"
       linejoin_type="extrp_arc"
       miter_limit="4"
       not_jump="false"
       sort_points="true"
       message="&lt;b&gt;Ctrl + clic&lt;/b&gt; puis déplacement sur un nœud existant" />
    <inkscape:path-effect
       effect="powerstroke"
       id="path-effect1"
       is_visible="true"
       lpeversion="1.3"
       scale_width="1"
       interpolator_type="CubicBezierJohan"
       interpolator_beta="0.2"
       start_linecap_type="zerowidth"
       end_linecap_type="zerowidth"
       offset_points="0,10"
       linejoin_type="extrp_arc"
       miter_limit="4"
       not_jump="false"
       sort_points="true"
       message="&lt;b&gt;Ctrl + clic&lt;/b&gt; puis déplacement sur un nœud existant" />
    <inkscape:path-effect
       effect="fill_between_many"
       method="bsplinespiro"
       autoreverse="false"
       close="false"
       join="false"
       linkedpaths="#path1,0,1"
       id="path-effect2" />
    <inkscape:path-effect
       effect="fill_between_many"
       method="bsplinespiro"
       autoreverse="false"
       close="false"
       join="false"
       linkedpaths="#path2,0,1"
       id="path-effect4" />
    <inkscape:path-effect
       effect="fill_between_many"
       method="bsplinespiro"
       autoreverse="false"
       close="false"
       join="false"
       linkedpaths="#path4,0,1"
       id="path-effect6" />
    <inkscape:path-effect
       effect="fill_between_many"
       method="bsplinespiro"
       autoreverse="false"
       close="false"
       join="false"
       linkedpaths="#path6,0,1"
       id="path-effect8" />
    <inkscape:path-effect
       effect="fill_between_many"
       method="bsplinespiro"
       autoreverse="false"
       close="false"
       join="false"
       linkedpaths="#path8,0,1"
       id="path-effect10" />
  </defs>
  <g
     inkscape:label="Calque 1"
     inkscape:groupmode="layer"
     id="layer1">
    <path
       id="path35"
       style="fill:#ffffff;stroke-width:1.323;stroke-linejoin:round"
       d="M 52.916665 11.90625 C 42.78687 11.940409 34.100538 19.147855 32.198034 29.097448 L 32.12672 29.097448 L 24.095169 71.102118 L 24.146329 71.118654 C 23.942243 72.094167 23.830463 73.086864 23.812499 74.083331 C 23.8125 82.850441 30.920391 89.958331 39.687499 89.958331 C 45.857184 89.948631 51.463087 86.36464 54.061298 80.768711 L 54.083002 80.775429 L 61.726463 64.332506 C 62.728536 64.648787 63.77215 64.814074 64.822915 64.822915 C 70.667881 64.822915 75.406248 60.084548 75.406248 54.239582 L 83.343748 54.239582 C 83.343748 60.084572 88.082091 64.822915 93.927081 64.822915 C 94.97785 64.814115 96.021456 64.648788 97.023533 64.332506 L 104.66699 80.775429 L 104.6887 80.768711 C 107.28697 86.364819 112.8926 89.948666 119.0625 89.958331 C 127.82988 89.958331 134.9375 82.850721 134.9375 74.083331 C 134.9335 73.083631 134.83571 72.086467 134.64449 71.105219 L 134.65483 71.102118 L 126.62328 29.097448 L 126.60829 29.097448 C 124.7019 19.126885 115.98453 11.913456 105.83333 11.90625 L 52.916665 11.90625 z M 52.916665 22.489583 A 2.645833 2.645833 0 0 1 55.562498 25.135416 L 55.562498 30.427083 L 60.854165 30.427083 A 2.645833 2.645833 0 0 1 63.499998 33.072916 A 2.645833 2.645833 0 0 1 60.854165 35.718749 L 55.562498 35.718749 L 55.562498 41.010416 A 2.645833 2.645833 0 0 1 52.916665 43.656249 A 2.645833 2.645833 0 0 1 50.270832 41.010416 L 50.270832 35.718749 L 44.979165 35.718749 A 2.645833 2.645833 0 0 1 42.333332 33.072916 A 2.645833 2.645833 0 0 1 44.979165 30.427083 L 50.270832 30.427083 L 50.270832 25.135416 A 2.645833 2.645833 0 0 1 52.916665 22.489583 z M 105.83333 23.151041 A 3.3072915 3.3072915 0 0 1 109.14062 26.458333 A 3.3072915 3.3072915 0 0 1 105.83333 29.765624 A 3.3072915 3.3072915 0 0 1 102.52604 26.458333 A 3.3072915 3.3072915 0 0 1 105.83333 23.151041 z M 99.218747 29.765624 A 3.3072915 3.3072915 0 0 1 102.52604 33.072916 A 3.3072915 3.3072915 0 0 1 99.218747 36.380207 A 3.3072915 3.3072915 0 0 1 95.911456 33.072916 A 3.3072915 3.3072915 0 0 1 99.218747 29.765624 z M 112.44791 29.765624 A 3.3072915 3.3072915 0 0 1 115.75521 33.072916 A 3.3072915 3.3072915 0 0 1 112.44791 36.380207 A 3.3072915 3.3072915 0 0 1 109.14062 33.072916 A 3.3072915 3.3072915 0 0 1 112.44791 29.765624 z M 105.83333 36.380207 A 3.3072915 3.3072915 0 0 1 109.14062 39.687499 A 3.3072915 3.3072915 0 0 1 105.83333 42.99479 A 3.3072915 3.3072915 0 0 1 102.52604 39.687499 A 3.3072915 3.3072915 0 0 1 105.83333 36.380207 z M 64.822915 44.979165 A 9.260416 9.260416 0 0 1 74.083331 54.239582 A 9.260416 9.260416 0 0 1 64.822915 63.499998 A 9.260416 9.260416 0 0 1 55.562498 54.239582 A 9.260416 9.260416 0 0 1 64.822915 44.979165 z M 93.927081 44.979165 A 9.260416 9.260416 0 0 1 103.1875 54.239582 A 9.260416 9.260416 0 0 1 93.927081 63.499998 A 9.260416 9.260416 0 0 1 84.666664 54.239582 A 9.260416 9.260416 0 0 1 93.927081 44.979165 z " />
  </g>
</svg>
