<?xml version="1.0" encoding="UTF-8" standalone="no"?>
<!-- Created with Inkscape (http://www.inkscape.org/) -->

<svg
   width="500"
   height="310"
   viewBox="0 0 500 310"
   version="1.1"
   id="svg1"
   inkscape:version="1.3.2 (091e20e, 2023-11-25, custom)"
   sodipodi:docname="Ranking.svg"
   xmlns:inkscape="http://www.inkscape.org/namespaces/inkscape"
   xmlns:sodipodi="http://sodipodi.sourceforge.net/DTD/sodipodi-0.dtd"
   xmlns="http://www.w3.org/2000/svg"
   xmlns:svg="http://www.w3.org/2000/svg">
  <sodipodi:namedview
     id="namedview1"
     pagecolor="#505050"
     bordercolor="#eeeeee"
     borderopacity="1"
     inkscape:showpageshadow="0"
     inkscape:pageopacity="0"
     inkscape:pagecheckerboard="0"
     inkscape:deskcolor="#505050"
     inkscape:document-units="px"
     showguides="true"
     inkscape:zoom="1.0722656"
     inkscape:cx="185.58834"
     inkscape:cy="251.33698"
     inkscape:window-width="1304"
     inkscape:window-height="745"
     inkscape:window-x="-8"
     inkscape:window-y="-8"
     inkscape:window-maximized="1"
     inkscape:current-layer="layer1">
    <sodipodi:guide
       position="510,310"
       orientation="-1,0"
       id="guide1"
       inkscape:locked="false"
       inkscape:label=""
       inkscape:color="rgb(0,134,229)" />
    <sodipodi:guide
       position="380,310"
       orientation="-1,0"
       id="guide2"
       inkscape:locked="false"
       inkscape:label=""
       inkscape:color="rgb(0,134,229)" />
    <sodipodi:guide
       position="370,310"
       orientation="-1,0"
       id="guide3"
       inkscape:locked="false"
       inkscape:label=""
       inkscape:color="rgb(0,134,229)" />
    <sodipodi:guide
       position="240,310"
       orientation="-1,0"
       id="guide4"
       inkscape:locked="false"
       inkscape:label=""
       inkscape:color="rgb(0,134,229)" />
    <sodipodi:guide
       position="230,310"
       orientation="-1,0"
       id="guide5"
       inkscape:locked="false"
       inkscape:label=""
       inkscape:color="rgb(0,134,229)" />
    <sodipodi:guide
       position="100,310"
       orientation="-1,0"
       id="guide6"
       inkscape:locked="false"
       inkscape:label=""
       inkscape:color="rgb(0,134,229)" />
    <sodipodi:guide
       position="0,-40"
       orientation="0,1"
       id="guide7"
       inkscape:locked="false"
       inkscape:label=""
       inkscape:color="rgb(0,134,229)" />
    <sodipodi:guide
       position="0,230"
       orientation="0,1"
       id="guide8"
       inkscape:locked="false"
       inkscape:label=""
       inkscape:color="rgb(0,134,229)" />
    <sodipodi:guide
       position="0,190"
       orientation="0,1"
       id="guide9"
       inkscape:locked="false"
       inkscape:label=""
       inkscape:color="rgb(0,134,229)" />
    <sodipodi:guide
       position="0,150"
       orientation="0,1"
       id="guide10"
       inkscape:locked="false"
       inkscape:label=""
       inkscape:color="rgb(0,134,229)" />
    <sodipodi:guide
       position="165,310"
       orientation="-1,0"
       id="guide13"
       inkscape:locked="false"
       inkscape:label=""
       inkscape:color="rgb(0,134,229)" />
    <sodipodi:guide
       position="305,310"
       orientation="-1,0"
       id="guide14"
       inkscape:locked="false"
       inkscape:label=""
       inkscape:color="rgb(0,134,229)" />
    <sodipodi:guide
       position="445,310"
       orientation="-1,0"
       id="guide15"
       inkscape:locked="false"
       inkscape:label=""
       inkscape:color="rgb(0,134,229)" />
    <sodipodi:guide
       position="0,220"
       orientation="0,1"
       id="guide16"
       inkscape:label=""
       inkscape:locked="false"
       inkscape:color="rgb(0,134,229)" />
    <sodipodi:guide
       position="0,180"
       orientation="0,1"
       id="guide17"
       inkscape:label=""
       inkscape:locked="false"
       inkscape:color="rgb(0,134,229)" />
    <sodipodi:guide
       position="0,140"
       orientation="0,1"
       id="guide18"
       inkscape:label=""
       inkscape:locked="false"
       inkscape:color="rgb(0,134,229)" />
  </sodipodi:namedview>
  <defs
     id="defs1" />
  <g
     inkscape:label="Calque 1"
     inkscape:groupmode="layer"
     id="layer1">
    <path
       d="m 105,120 c -2.76131,2.8e-4 -4.99972,2.23869 -5,5 v 220 c 2.8e-4,2.76131 2.23869,4.99972 5,5 h 120 c 2.76131,-2.8e-4 4.99972,-2.23869 5,-5 V 125 c -2.8e-4,-2.76131 -2.23869,-4.99972 -5,-5 z m 60.58594,10 c 7.67999,0 12.85351,4.53287 12.85351,11.51953 v 0.10742 c 0,6.29333 -3.19917,9.2798 -9.8125,14.45313 l -6.08008,4.69336 h 16.26563 v 7.09375 h -27.625 v -6.50782 l 12.42578,-10.18554 c 4.69333,-3.83999 6.45313,-5.86761 6.45313,-8.96094 0,-3.2 -2.02702,-4.85352 -5.01368,-4.85352 -2.93332,0 -4.85362,1.60035 -7.62695,5.01368 l -5.75976,-4.64063 C 155.34601,132.77244 158.91928,130 165.58594,130 Z"
       style="fill:#ffffff;stroke-linejoin:round"
       id="path30" />
    <path
       d="m 245,80 c -2.76131,2.76e-4 -4.99972,2.238694 -5,5 v 260 c 2.8e-4,2.76131 2.23869,4.99972 5,5 h 120 c 2.76131,-2.8e-4 4.99972,-2.23869 5,-5 V 85 c -2.8e-4,-2.761306 -2.23869,-4.999724 -5,-5 z m 58.88086,10 h 6.29883 v 42.30078 h -9.11914 V 99.359375 l -7.32032,1.800785 -1.91992,-7.560551 z"
       style="fill:#ffffff;stroke-linejoin:round"
       id="path31"
       inkscape:label="path31"
       sodipodi:nodetypes="ccccccccccccccccc" />
    <path
       d="m 385,160 c -2.76131,2.8e-4 -4.99972,2.23869 -5,5 v 180 c 2.8e-4,2.76131 2.23869,4.99972 5,5 h 120 c 2.76131,-2.8e-4 4.99972,-2.23869 5,-5 V 165 c -2.8e-4,-2.76131 -2.23869,-4.99972 -5,-5 z m 49.66406,10 h 22.07227 v 5.41406 l -8.25977,7.88672 c 4.43333,0.74666 8.77344,3.03315 8.77344,9.14649 v 0.0918 c 0,6.16001 -4.47977,10.6875 -11.75977,10.6875 -5.92666,0 -9.94023,-2.28649 -12.74023,-5.64648 l 4.94727,-4.71289 c 2.23999,2.56666 4.52672,3.91992 7.88671,3.91992 2.75334,0 4.61914,-1.54013 4.61914,-3.9668 v -0.0937 c 10e-6,-2.65999 -2.33258,-4.15234 -6.39257,-4.15234 h -2.98633 L 439.70312,184 l 7.79297,-7.83984 h -12.83203 z"
       style="fill:#ffffff;stroke-linejoin:round"
       id="path32" />
  </g>
</svg>
