<?xml version="1.0" encoding="UTF-8" standalone="no"?>
<!-- Created with Inkscape (http://www.inkscape.org/) -->

<svg
   width="500"
   height="310"
   viewBox="0 0 500 310"
   version="1.1"
   id="svg1"
   inkscape:version="1.3.2 (091e20e, 2023-11-25, custom)"
   sodipodi:docname="Series.svg"
   inkscape:export-filename="..\KGameX Website\Images\Series.png"
   inkscape:export-xdpi="96"
   inkscape:export-ydpi="96"
   xmlns:inkscape="http://www.inkscape.org/namespaces/inkscape"
   xmlns:sodipodi="http://sodipodi.sourceforge.net/DTD/sodipodi-0.dtd"
   xmlns="http://www.w3.org/2000/svg"
   xmlns:svg="http://www.w3.org/2000/svg">
  <sodipodi:namedview
     id="namedview1"
     pagecolor="#505050"
     bordercolor="#ffffff"
     borderopacity="1"
     inkscape:showpageshadow="false"
     inkscape:pageopacity="0"
     inkscape:pagecheckerboard="0"
     inkscape:deskcolor="#505050"
     inkscape:document-units="px"
     labelstyle="default"
     showguides="true"
     inkscape:zoom="0.67"
     inkscape:cx="164.1791"
     inkscape:cy="203.73134"
     inkscape:window-width="1304"
     inkscape:window-height="745"
     inkscape:window-x="-8"
     inkscape:window-y="-8"
     inkscape:window-maximized="1"
     inkscape:current-layer="layer1">
    <sodipodi:guide
       position="0,300"
       orientation="0,1"
       id="guide1"
       inkscape:locked="false"
       inkscape:label=""
       inkscape:color="rgb(0,134,229)" />
    <sodipodi:guide
       position="250,310"
       orientation="-1,0"
       id="guide2"
       inkscape:locked="false"
       inkscape:label=""
       inkscape:color="rgb(0,134,229)" />
    <sodipodi:guide
       position="350,310"
       orientation="-1,0"
       id="guide3"
       inkscape:locked="false"
       inkscape:label=""
       inkscape:color="rgb(0,134,229)" />
    <sodipodi:guide
       position="360,310"
       orientation="-1,0"
       id="guide4"
       inkscape:locked="false"
       inkscape:label=""
       inkscape:color="rgb(0,134,229)" />
    <sodipodi:guide
       position="460,310"
       orientation="-1,0"
       id="guide5"
       inkscape:locked="false"
       inkscape:label=""
       inkscape:color="rgb(0,134,229)" />
    <sodipodi:guide
       position="470,310"
       orientation="-1,0"
       id="guide6"
       inkscape:locked="false"
       inkscape:label=""
       inkscape:color="rgb(0,134,229)" />
    <sodipodi:guide
       position="570,310"
       orientation="-1,0"
       id="guide7"
       inkscape:locked="false"
       inkscape:label=""
       inkscape:color="rgb(0,134,229)" />
    <sodipodi:guide
       position="0,200"
       orientation="0,1"
       id="guide8"
       inkscape:locked="false"
       inkscape:label=""
       inkscape:color="rgb(0,134,229)" />
    <sodipodi:guide
       position="0,150"
       orientation="0,1"
       id="guide9"
       inkscape:locked="false"
       inkscape:label=""
       inkscape:color="rgb(0,134,229)" />
    <sodipodi:guide
       position="0,140"
       orientation="0,1"
       id="guide10"
       inkscape:locked="false"
       inkscape:label=""
       inkscape:color="rgb(0,134,229)" />
    <sodipodi:guide
       position="0,40"
       orientation="0,1"
       id="guide11"
       inkscape:locked="false"
       inkscape:label=""
       inkscape:color="rgb(0,134,229)" />
    <sodipodi:guide
       position="0,-10"
       orientation="0,1"
       id="guide12"
       inkscape:locked="false"
       inkscape:label=""
       inkscape:color="rgb(0,134,229)" />
    <sodipodi:guide
       position="260,310"
       orientation="-1,0"
       id="guide23"
       inkscape:locked="false"
       inkscape:label=""
       inkscape:color="rgb(0,134,229)" />
    <sodipodi:guide
       position="370,310"
       orientation="-1,0"
       id="guide24"
       inkscape:locked="false"
       inkscape:label=""
       inkscape:color="rgb(0,134,229)" />
    <sodipodi:guide
       position="480,310"
       orientation="-1,0"
       id="guide25"
       inkscape:locked="false"
       inkscape:label=""
       inkscape:color="rgb(0,134,229)" />
    <sodipodi:guide
       position="0,180"
       orientation="0,1"
       id="guide26"
       inkscape:locked="false"
       inkscape:label=""
       inkscape:color="rgb(0,134,229)" />
    <sodipodi:guide
       position="0,20"
       orientation="0,1"
       id="guide27"
       inkscape:locked="false"
       inkscape:label=""
       inkscape:color="rgb(0,134,229)" />
    <sodipodi:guide
       position="240,310"
       orientation="-1,0"
       id="guide13"
       inkscape:locked="false"
       inkscape:label=""
       inkscape:color="rgb(0,134,229)" />
    <sodipodi:guide
       position="140,310"
       orientation="-1,0"
       id="guide14"
       inkscape:locked="false"
       inkscape:label=""
       inkscape:color="rgb(0,134,229)" />
    <sodipodi:guide
       position="150,310"
       orientation="-1,0"
       id="guide15"
       inkscape:locked="false"
       inkscape:label=""
       inkscape:color="rgb(0,134,229)" />
  </sodipodi:namedview>
  <defs
     id="defs1" />
  <g
     inkscape:label="Calque 1"
     inkscape:groupmode="layer"
     id="layer1">
    <path
       id="path54"
       style="fill:#ffffff;stroke-linejoin:round"
       d="M 145 10 C 142.2387 10.000262 140.00026 12.238699 140 15 L 140 155 C 140.00026 157.7613 142.2387 159.99974 145 160 L 235 160 C 237.7613 159.99974 239.99974 157.7613 240 155 L 240 15 C 239.99974 12.238699 237.7613 10.000262 235 10 L 145 10 z M 145 12.5 L 235 12.5 C 236.38065 12.500138 237.49986 13.619352 237.5 15 L 237.5 105 C 237.49986 106.38065 236.38065 107.49986 235 107.5 L 230 107.5 L 150 107.5 L 145 107.5 C 143.61935 107.49986 142.50014 106.38065 142.5 105 L 142.5 15 C 142.50014 13.619352 143.61935 12.500138 145 12.5 z M 154.94336 118.64062 C 156.59136 118.64063 157.95152 119.15245 159.10352 120.06445 L 157.82422 121.91992 C 156.81622 121.23192 155.87211 120.81641 154.91211 120.81641 C 153.95211 120.81641 153.47266 121.23297 153.47266 121.79297 L 153.47266 121.82422 C 153.47266 122.57622 153.95267 122.78488 155.88867 123.29688 C 158.16067 123.90487 159.43945 124.70425 159.43945 126.65625 L 159.43945 126.6875 C 159.43945 128.9115 157.74412 130.16016 155.32812 130.16016 C 153.61613 130.16016 151.92017 129.58319 150.57617 128.36719 L 152.03125 126.625 C 153.05525 127.457 154.09695 127.98438 155.37695 127.98438 C 156.40095 127.98437 156.99219 127.58373 156.99219 126.92773 L 156.99219 126.89648 C 156.99219 126.27248 156.60833 125.93666 154.73633 125.47266 C 152.46433 124.91266 151.02344 124.25683 151.02344 122.04883 L 151.02344 122.01562 C 151.02344 119.98363 152.63936 118.64062 154.94336 118.64062 z M 207.11914 118.7207 L 208.80078 118.7207 L 208.80078 130 L 206.36719 130 L 206.36719 121.2168 L 204.41602 121.69531 L 203.9043 119.67969 L 207.11914 118.7207 z M 211.35938 118.80078 L 219.42383 118.80078 L 219.42383 120.65625 L 214.40039 130 L 211.61523 130 L 216.62305 120.92773 L 211.35938 120.92773 L 211.35938 118.80078 z M 165.4082 121.26367 C 167.0242 121.26367 168.01603 121.80713 168.83203 122.70312 L 167.34375 124.30469 C 166.78375 123.72869 166.27258 123.35938 165.39258 123.35938 C 164.17658 123.35937 163.3125 124.41531 163.3125 125.69531 L 163.3125 125.72852 C 163.3125 127.05651 164.16028 128.0957 165.48828 128.0957 C 166.30428 128.0957 166.86308 127.74359 167.45508 127.18359 L 168.88086 128.625 C 168.04886 129.537 167.087 130.19141 165.375 130.19141 C 162.799 130.19141 160.91211 128.19176 160.91211 125.75977 L 160.91211 125.72852 C 160.91211 123.28052 162.78421 121.26367 165.4082 121.26367 z M 174.04883 121.26367 C 176.91283 121.26367 178.22461 123.48792 178.22461 125.91992 C 178.22461 126.11192 178.20741 126.32055 178.19141 126.56055 L 172.22461 126.56055 C 172.46461 127.66455 173.23231 128.24023 174.32031 128.24023 C 175.13631 128.24023 175.71239 127.98337 176.40039 127.35938 L 177.79102 128.5918 C 176.97502 129.5998 175.83911 130.19141 174.28711 130.19141 C 171.71111 130.19141 169.80859 128.38376 169.80859 125.75977 L 169.80859 125.72852 C 169.80859 123.28052 171.55283 121.26367 174.04883 121.26367 z M 184.97656 121.26367 C 186.83256 121.26367 187.88867 122.46327 187.88867 124.44727 L 187.88867 130 L 185.45508 130 L 185.45508 125.2168 C 185.45508 124.0648 184.92837 123.47266 183.98438 123.47266 C 183.04038 123.47266 182.46484 124.0648 182.46484 125.2168 L 182.46484 130 L 180.03125 130 L 180.03125 121.42383 L 182.46484 121.42383 L 182.46484 122.64062 C 183.02484 121.92063 183.76056 121.26367 184.97656 121.26367 z M 193.82422 121.26367 C 196.68822 121.26367 198 123.48792 198 125.91992 C 198 126.11192 197.98475 126.32055 197.96875 126.56055 L 192 126.56055 C 192.24 127.66455 193.0077 128.24023 194.0957 128.24023 C 194.9117 128.24023 195.48778 127.98337 196.17578 127.35938 L 197.56836 128.5918 C 196.75236 129.5998 195.61645 130.19141 194.06445 130.19141 C 191.48846 130.19141 189.58398 128.38376 189.58398 125.75977 L 189.58398 125.72852 C 189.58398 123.28052 191.32822 121.26367 193.82422 121.26367 z M 174.04883 123.2168 C 173.02483 123.2168 172.38341 123.93506 172.19141 125.03906 L 175.85547 125.03906 C 175.71147 123.95106 175.07283 123.2168 174.04883 123.2168 z M 193.82422 123.2168 C 192.80022 123.2168 192.16075 123.93506 191.96875 125.03906 L 195.63281 125.03906 C 195.48881 123.95106 194.84822 123.2168 193.82422 123.2168 z " />
    <path
       id="path55"
       style="fill:#ffffff;stroke-linejoin:round"
       d="M 255 10 C 252.2387 10.000262 250.00026 12.238699 250 15 L 250 155 C 250.00026 157.7613 252.2387 159.99974 255 160 L 345 160 C 347.7613 159.99974 349.99974 157.7613 350 155 L 350 15 C 349.99974 12.238699 347.7613 10.000262 345 10 L 255 10 z M 255 12.5 L 345 12.5 C 346.38065 12.500138 347.49986 13.619352 347.5 15 L 347.5 105 C 347.49986 106.38065 346.38065 107.49986 345 107.5 L 340 107.5 L 260 107.5 L 255 107.5 C 253.61935 107.49986 252.50014 106.38065 252.5 105 L 252.5 15 C 252.50014 13.619352 253.61935 12.500138 255 12.5 z M 264.94336 118.64062 C 266.59136 118.64063 267.95152 119.15245 269.10352 120.06445 L 267.82422 121.91992 C 266.81622 121.23192 265.87211 120.81641 264.91211 120.81641 C 263.95211 120.81641 263.47266 121.23297 263.47266 121.79297 L 263.47266 121.82422 C 263.47266 122.57622 263.95267 122.78488 265.88867 123.29688 C 268.16067 123.90487 269.43945 124.70425 269.43945 126.65625 L 269.43945 126.6875 C 269.43945 128.9115 267.74412 130.16016 265.32812 130.16016 C 263.61613 130.16016 261.92017 129.58319 260.57617 128.36719 L 262.03125 126.62305 C 263.05525 127.45505 264.09695 127.98438 265.37695 127.98438 C 266.40095 127.98437 266.99219 127.58373 266.99219 126.92773 L 266.99219 126.89648 C 266.99219 126.27248 266.60833 125.93666 264.73633 125.47266 C 262.46433 124.91266 261.02344 124.25683 261.02344 122.04883 L 261.02344 122.01562 C 261.02344 119.98363 262.63936 118.64062 264.94336 118.64062 z M 325.3125 118.64062 C 327.6805 118.64062 329.24805 119.98489 329.24805 121.71289 L 329.24805 121.74414 C 329.24805 122.96014 328.70422 123.66341 327.82422 124.19141 C 328.96022 124.78341 329.63281 125.50403 329.63281 126.83203 L 329.63281 126.86328 C 329.63281 128.94328 327.7925 130.16016 325.3125 130.16016 C 322.8325 130.16016 320.99219 128.87973 320.99219 126.92773 L 320.99219 126.89648 C 320.99219 125.53649 321.60078 124.75141 322.80078 124.19141 C 321.92078 123.66341 321.37695 122.96014 321.37695 121.74414 L 321.37695 121.71289 C 321.37695 120.00089 322.9445 118.64062 325.3125 118.64062 z M 317.11914 118.7207 L 318.80078 118.7207 L 318.80078 130 L 316.36719 130 L 316.36719 121.2168 L 314.41602 121.69531 L 313.9043 119.67969 L 317.11914 118.7207 z M 325.3125 120.67188 C 324.2885 120.67187 323.71289 121.28075 323.71289 121.96875 L 323.71289 122 C 323.71289 122.784 324.3365 123.37695 325.3125 123.37695 C 326.2885 123.37695 326.91211 122.79962 326.91211 122.01562 L 326.91211 121.98438 C 326.91211 121.29638 326.3365 120.67188 325.3125 120.67188 z M 275.4082 121.26367 C 277.0242 121.26367 278.01603 121.80713 278.83203 122.70312 L 277.34375 124.30469 C 276.78375 123.72869 276.27258 123.35938 275.39258 123.35938 C 274.17658 123.35937 273.3125 124.41531 273.3125 125.69531 L 273.3125 125.72852 C 273.3125 127.05651 274.16028 128.0957 275.48828 128.0957 C 276.30428 128.0957 276.86308 127.74359 277.45508 127.18359 L 278.88086 128.62305 C 278.04886 129.53505 277.08895 130.19141 275.37695 130.19141 C 272.80096 130.19141 270.91211 128.19176 270.91211 125.75977 L 270.91211 125.72852 C 270.91211 123.28052 272.78421 121.26367 275.4082 121.26367 z M 284.04883 121.26367 C 286.91283 121.26367 288.22461 123.48792 288.22461 125.91992 C 288.22461 126.11192 288.20741 126.32055 288.19141 126.56055 L 282.22461 126.56055 C 282.46461 127.66455 283.23231 128.24023 284.32031 128.24023 C 285.13631 128.24023 285.71239 127.98337 286.40039 127.35938 L 287.79102 128.5918 C 286.97502 129.5998 285.83911 130.19141 284.28711 130.19141 C 281.71111 130.19141 279.80859 128.38376 279.80859 125.75977 L 279.80859 125.72852 C 279.80859 123.28052 281.55283 121.26367 284.04883 121.26367 z M 294.97656 121.26367 C 296.83256 121.26367 297.88867 122.46327 297.88867 124.44727 L 297.88867 130 L 295.45508 130 L 295.45508 125.2168 C 295.45508 124.0648 294.92837 123.47266 293.98438 123.47266 C 293.04038 123.47266 292.46484 124.0648 292.46484 125.2168 L 292.46484 130 L 290.03125 130 L 290.03125 121.42383 L 292.46484 121.42383 L 292.46484 122.64062 C 293.02484 121.92063 293.76056 121.26367 294.97656 121.26367 z M 303.82422 121.26367 C 306.68822 121.26367 308 123.48792 308 125.91992 C 308 126.11192 307.98475 126.32055 307.96875 126.56055 L 302 126.56055 C 302.24 127.66455 303.0077 128.24023 304.0957 128.24023 C 304.9117 128.24023 305.48778 127.98337 306.17578 127.35938 L 307.56836 128.5918 C 306.75236 129.5998 305.61645 130.19141 304.06445 130.19141 C 301.48846 130.19141 299.58398 128.38376 299.58398 125.75977 L 299.58398 125.72852 C 299.58398 123.28052 301.32822 121.26367 303.82422 121.26367 z M 284.04883 123.2168 C 283.02483 123.2168 282.38341 123.93506 282.19141 125.03906 L 285.85547 125.03906 C 285.71147 123.95106 285.07283 123.2168 284.04883 123.2168 z M 303.82422 123.2168 C 302.80022 123.2168 302.16075 123.93506 301.96875 125.03906 L 305.63281 125.03906 C 305.48881 123.95106 304.84822 123.2168 303.82422 123.2168 z M 325.3125 125.32812 C 324.1765 125.32812 323.37695 125.82313 323.37695 126.70312 L 323.37695 126.73633 C 323.37695 127.50433 324.0965 128.12891 325.3125 128.12891 C 326.5285 128.12891 327.24805 127.52033 327.24805 126.73633 L 327.24805 126.70312 C 327.24805 125.82313 326.4485 125.32812 325.3125 125.32812 z " />
    <path
       id="path56"
       style="fill:#ffffff;stroke-linejoin:round"
       d="M 365 10 C 362.2387 10.000262 360.00026 12.238699 360 15 L 360 155 C 360.00026 157.7613 362.2387 159.99974 365 160 L 455 160 C 457.7613 159.99974 459.99974 157.7613 460 155 L 460 15 C 459.99974 12.238699 457.7613 10.000262 455 10 L 365 10 z M 365 12.5 L 455 12.5 C 456.38065 12.500138 457.49986 13.619352 457.5 15 L 457.5 105 C 457.49986 106.38065 456.38065 107.49986 455 107.5 L 450 107.5 L 370 107.5 L 365 107.5 C 363.61935 107.49986 362.50014 106.38065 362.5 105 L 362.5 15 C 362.50014 13.619352 363.61935 12.500138 365 12.5 z M 434.86328 118.41602 C 436.35128 118.41602 437.2477 118.78481 438.0957 119.63281 C 438.8957 120.43281 439.42383 121.64747 439.42383 123.85547 L 439.42383 123.88867 C 439.42383 127.52067 437.71134 130 434.52734 130 C 432.87935 130 431.80766 129.45587 430.84766 128.67188 L 432.14453 126.80078 C 432.96053 127.45678 433.6318 127.75977 434.5918 127.75977 C 436.2718 127.75977 436.78328 126.1768 436.86328 125.2168 C 436.28728 125.7128 435.5518 125.98438 434.5918 125.98438 C 432.1598 125.98437 430.5918 124.62319 430.5918 122.36719 L 430.5918 122.33594 C 430.5918 120.07994 432.33528 118.41602 434.86328 118.41602 z M 374.36719 118.44727 C 376.01519 118.44727 377.37534 118.95909 378.52734 119.87109 L 377.24805 121.72852 C 376.24005 121.04052 375.29594 120.62305 374.33594 120.62305 C 373.37594 120.62305 372.89648 121.03961 372.89648 121.59961 L 372.89648 121.63281 C 372.89648 122.38481 373.3765 122.59152 375.3125 123.10352 C 377.5845 123.71152 378.86328 124.51285 378.86328 126.46484 L 378.86328 126.49609 C 378.86328 128.72009 377.16795 129.96875 374.75195 129.96875 C 373.03995 129.96875 371.344 129.39178 370 128.17578 L 371.45508 126.43164 C 372.47908 127.26364 373.52078 127.79297 374.80078 127.79297 C 375.82478 127.79297 376.41602 127.39233 376.41602 126.73633 L 376.41602 126.70312 C 376.41602 126.07913 376.03215 125.7433 374.16016 125.2793 C 371.88816 124.7193 370.44727 124.06347 370.44727 121.85547 L 370.44727 121.82422 C 370.44727 119.79222 372.06319 118.44727 374.36719 118.44727 z M 426.54492 118.52734 L 428.22461 118.52734 L 428.22461 129.80859 L 425.79297 129.80859 L 425.79297 121.02344 L 423.83984 121.50391 L 423.32812 119.48828 L 426.54492 118.52734 z M 434.94336 120.52734 C 433.72736 120.52734 433.03906 121.21661 433.03906 122.22461 L 433.03906 122.25586 C 433.03906 123.26386 433.77619 123.93555 434.99219 123.93555 C 436.20819 123.93555 436.91211 123.23148 436.91211 122.27148 L 436.91211 122.24023 C 436.91211 121.23224 436.17536 120.52734 434.94336 120.52734 z M 384.83203 121.07227 C 386.44803 121.07227 387.43986 121.61572 388.25586 122.51172 L 386.76758 124.11133 C 386.20758 123.53533 385.69641 123.16797 384.81641 123.16797 C 383.60041 123.16797 382.73633 124.22391 382.73633 125.50391 L 382.73633 125.53516 C 382.73633 126.86315 383.58411 127.9043 384.91211 127.9043 C 385.72811 127.9043 386.28886 127.55219 386.88086 126.99219 L 388.30469 128.43164 C 387.47269 129.34364 386.51278 130 384.80078 130 C 382.22478 130 380.33594 128.00036 380.33594 125.56836 L 380.33594 125.53516 C 380.33594 123.08716 382.20803 121.07227 384.83203 121.07227 z M 393.47266 121.07227 C 396.33665 121.07227 397.64844 123.29652 397.64844 125.72852 C 397.64844 125.92052 397.63123 126.12719 397.61523 126.36719 L 391.64844 126.36719 C 391.88844 127.47119 392.65614 128.04883 393.74414 128.04883 C 394.56014 128.04883 395.13622 127.79197 395.82422 127.16797 L 397.2168 128.40039 C 396.4008 129.40839 395.26489 130 393.71289 130 C 391.13689 130 389.23242 128.19236 389.23242 125.56836 L 389.23242 125.53516 C 389.23242 123.08716 390.97666 121.07227 393.47266 121.07227 z M 404.40039 121.07227 C 406.25639 121.07227 407.3125 122.27186 407.3125 124.25586 L 407.3125 129.80859 L 404.88086 129.80859 L 404.88086 125.02344 C 404.88086 123.87144 404.3522 123.2793 403.4082 123.2793 C 402.4642 123.2793 401.88867 123.87144 401.88867 125.02344 L 401.88867 129.80859 L 399.45508 129.80859 L 399.45508 121.23242 L 401.88867 121.23242 L 401.88867 122.44727 C 402.44867 121.72727 403.18439 121.07227 404.40039 121.07227 z M 413.24805 121.07227 C 416.11204 121.07227 417.42383 123.29652 417.42383 125.72852 C 417.42383 125.92052 417.40858 126.12719 417.39258 126.36719 L 411.42383 126.36719 C 411.66383 127.47119 412.43153 128.04883 413.51953 128.04883 C 414.33553 128.04883 414.91161 127.79197 415.59961 127.16797 L 416.99219 128.40039 C 416.17619 129.40839 415.04028 130 413.48828 130 C 410.91228 130 409.00781 128.19236 409.00781 125.56836 L 409.00781 125.53516 C 409.00781 123.08716 410.75205 121.07227 413.24805 121.07227 z M 393.47266 123.02344 C 392.44866 123.02344 391.80723 123.74366 391.61523 124.84766 L 395.2793 124.84766 C 395.1353 123.75966 394.49666 123.02344 393.47266 123.02344 z M 413.24805 123.02344 C 412.22405 123.02344 411.58458 123.74366 411.39258 124.84766 L 415.05664 124.84766 C 414.91264 123.75966 414.27205 123.02344 413.24805 123.02344 z " />
    <path
       id="path57"
       style="fill:#ffffff;stroke-linejoin:round"
       d="M 475 10 C 472.2387 10.000262 470.00026 12.238699 470 15 L 470 155 C 470.00026 157.7613 472.2387 159.99974 475 160 L 565 160 C 567.7613 159.99974 569.99974 157.7613 570 155 L 570 15 C 569.99974 12.238699 567.7613 10.000262 565 10 L 475 10 z M 475 12.5 L 565 12.5 C 566.38065 12.500138 567.49986 13.619352 567.5 15 L 567.5 105 C 567.49986 106.38065 566.38065 107.49986 565 107.5 L 560 107.5 L 480 107.5 L 475 107.5 C 473.61935 107.49986 472.50014 106.38065 472.5 105 L 472.5 15 C 472.50014 13.619352 473.61935 12.500138 475 12.5 z M 548.76758 118.41602 C 551.72758 118.41602 553.72852 120.91178 553.72852 124.17578 L 553.72852 124.20703 C 553.72852 127.45503 551.72833 130 548.73633 130 C 545.72833 130 543.77539 127.50423 543.77539 124.24023 L 543.77539 124.20703 C 543.77539 120.95903 545.77558 118.41602 548.76758 118.41602 z M 484.36719 118.44727 C 486.01519 118.44727 487.37534 118.95909 488.52734 119.87109 L 487.24805 121.72852 C 486.24005 121.04052 485.29594 120.62305 484.33594 120.62305 C 483.37594 120.62305 482.89648 121.03961 482.89648 121.59961 L 482.89648 121.63281 C 482.89648 122.38481 483.3765 122.59152 485.3125 123.10352 C 487.5845 123.71152 488.86328 124.51285 488.86328 126.46484 L 488.86328 126.49609 C 488.86328 128.72009 487.16795 129.96875 484.75195 129.96875 C 483.03995 129.96875 481.344 129.39178 480 128.17578 L 481.45508 126.43164 C 482.47908 127.26364 483.52078 127.79297 484.80078 127.79297 C 485.82478 127.79297 486.41602 127.39233 486.41602 126.73633 L 486.41602 126.70312 C 486.41602 126.07913 486.03215 125.7433 484.16016 125.2793 C 481.88816 124.7193 480.44727 124.06347 480.44727 121.85547 L 480.44727 121.82422 C 480.44727 119.79222 482.06319 118.44727 484.36719 118.44727 z M 538.04883 118.44727 C 540.35283 118.44727 541.9043 119.8083 541.9043 121.9043 L 541.9043 121.93555 C 541.9043 123.82354 540.94494 124.71949 538.96094 126.27148 L 537.13672 127.67969 L 542.01562 127.67969 L 542.01562 129.80859 L 533.72852 129.80859 L 533.72852 127.85547 L 537.45508 124.80078 C 538.86308 123.64878 539.39258 123.03933 539.39258 122.11133 C 539.39258 121.15133 538.78467 120.65625 537.88867 120.65625 C 537.00867 120.65625 536.43161 121.13616 535.59961 122.16016 L 533.87109 120.76758 C 534.97509 119.27958 536.04883 118.44727 538.04883 118.44727 z M 548.73633 120.64062 C 547.26433 120.64062 546.30469 122.12778 546.30469 124.17578 L 546.30469 124.20703 C 546.30469 126.25503 547.27958 127.77539 548.76758 127.77539 C 550.25558 127.77539 551.19922 126.28823 551.19922 124.24023 L 551.19922 124.20703 C 551.19922 122.17503 550.20833 120.64062 548.73633 120.64062 z M 494.83203 121.07227 C 496.44803 121.07227 497.43986 121.61572 498.25586 122.51172 L 496.76758 124.11133 C 496.20758 123.53533 495.69641 123.16797 494.81641 123.16797 C 493.60041 123.16797 492.73633 124.22391 492.73633 125.50391 L 492.73633 125.53516 C 492.73633 126.86315 493.58411 127.9043 494.91211 127.9043 C 495.72811 127.9043 496.28886 127.55219 496.88086 126.99219 L 498.30469 128.43164 C 497.47269 129.34364 496.51278 130 494.80078 130 C 492.22478 130 490.33594 128.00036 490.33594 125.56836 L 490.33594 125.53516 C 490.33594 123.08716 492.20803 121.07227 494.83203 121.07227 z M 503.47266 121.07227 C 506.33665 121.07227 507.64844 123.29652 507.64844 125.72852 C 507.64844 125.92052 507.63123 126.12719 507.61523 126.36719 L 501.64844 126.36719 C 501.88844 127.47119 502.65614 128.04883 503.74414 128.04883 C 504.56014 128.04883 505.13622 127.79197 505.82422 127.16797 L 507.2168 128.40039 C 506.4008 129.40839 505.26489 130 503.71289 130 C 501.13689 130 499.23242 128.19236 499.23242 125.56836 L 499.23242 125.53516 C 499.23242 123.08716 500.97666 121.07227 503.47266 121.07227 z M 514.40039 121.07227 C 516.25639 121.07227 517.3125 122.27186 517.3125 124.25586 L 517.3125 129.80859 L 514.88086 129.80859 L 514.88086 125.02344 C 514.88086 123.87144 514.3522 123.2793 513.4082 123.2793 C 512.4642 123.2793 511.88867 123.87144 511.88867 125.02344 L 511.88867 129.80859 L 509.45508 129.80859 L 509.45508 121.23242 L 511.88867 121.23242 L 511.88867 122.44727 C 512.44867 121.72727 513.18439 121.07227 514.40039 121.07227 z M 523.24805 121.07227 C 526.11204 121.07227 527.42383 123.29652 527.42383 125.72852 C 527.42383 125.92052 527.40858 126.12719 527.39258 126.36719 L 521.42383 126.36719 C 521.66383 127.47119 522.43153 128.04883 523.51953 128.04883 C 524.33553 128.04883 524.91161 127.79197 525.59961 127.16797 L 526.99219 128.40039 C 526.17619 129.40839 525.04028 130 523.48828 130 C 520.91228 130 519.00781 128.19236 519.00781 125.56836 L 519.00781 125.53516 C 519.00781 123.08716 520.75205 121.07227 523.24805 121.07227 z M 503.47266 123.02344 C 502.44866 123.02344 501.80723 123.74366 501.61523 124.84766 L 505.2793 124.84766 C 505.1353 123.75966 504.49666 123.02344 503.47266 123.02344 z M 523.24805 123.02344 C 522.22405 123.02344 521.58458 123.74366 521.39258 124.84766 L 525.05664 124.84766 C 524.91264 123.75966 524.27205 123.02344 523.24805 123.02344 z " />
    <path
       id="path58"
       style="fill:#ffffff;stroke-linejoin:round"
       d="M 145 170 C 142.2387 170.00026 140.00026 172.2387 140 175 L 140 315 C 140.00026 317.7613 142.2387 319.99974 145 320 L 235 320 C 237.7613 319.99974 239.99974 317.7613 240 315 L 240 175 C 239.99974 172.2387 237.7613 170.00026 235 170 L 145 170 z M 145 172.5 L 235 172.5 C 236.38065 172.50014 237.49986 173.61935 237.5 175 L 237.5 265 C 237.49986 266.38065 236.38065 267.49986 235 267.5 L 230 267.5 L 150 267.5 L 145 267.5 C 143.61935 267.49986 142.50014 266.38065 142.5 265 L 142.5 175 C 142.50014 173.61935 143.61935 172.50014 145 172.5 z M 154.36719 278.44727 C 156.01519 278.44727 157.37534 278.95909 158.52734 279.87109 L 157.24805 281.72852 C 156.24005 281.04052 155.29594 280.625 154.33594 280.625 C 153.37594 280.625 152.89648 281.03961 152.89648 281.59961 L 152.89648 281.63281 C 152.89648 282.38481 153.3765 282.59152 155.3125 283.10352 C 157.5845 283.71152 158.86328 284.51285 158.86328 286.46484 L 158.86328 286.49609 C 158.86328 288.72009 157.16795 289.96875 154.75195 289.96875 C 153.03995 289.96875 151.344 289.39178 150 288.17578 L 151.45508 286.43164 C 152.47908 287.26364 153.52078 287.79297 154.80078 287.79297 C 155.82478 287.79297 156.41602 287.39233 156.41602 286.73633 L 156.41602 286.70312 C 156.41602 286.07913 156.03215 285.7433 154.16016 285.2793 C 151.88816 284.7193 150.44727 284.06347 150.44727 281.85547 L 150.44727 281.82422 C 150.44727 279.79222 152.06319 278.44727 154.36719 278.44727 z M 208.04883 278.44727 C 210.35283 278.44727 211.9043 279.8083 211.9043 281.9043 L 211.9043 281.93555 C 211.9043 283.82354 210.94494 284.71949 208.96094 286.27148 L 207.13672 287.67969 L 212.01562 287.67969 L 212.01562 289.80859 L 203.72852 289.80859 L 203.72852 287.85547 L 207.45508 284.80078 C 208.86308 283.64878 209.39258 283.03933 209.39258 282.11133 C 209.39258 281.15133 208.78467 280.65625 207.88867 280.65625 C 207.00867 280.65625 206.43161 281.13616 205.59961 282.16016 L 203.87109 280.76758 C 204.97509 279.27958 206.04883 278.44727 208.04883 278.44727 z M 216.51172 278.52734 L 218.19141 278.52734 L 218.19141 289.80859 L 215.75977 289.80859 L 215.75977 281.02344 L 213.80859 281.50391 L 213.29688 279.48828 L 216.51172 278.52734 z M 164.83203 281.07227 C 166.44803 281.07227 167.43986 281.61572 168.25586 282.51172 L 166.76758 284.11133 C 166.20758 283.53533 165.69641 283.16797 164.81641 283.16797 C 163.60041 283.16797 162.73633 284.22391 162.73633 285.50391 L 162.73633 285.53516 C 162.73633 286.86315 163.58411 287.9043 164.91211 287.9043 C 165.72811 287.9043 166.28886 287.55219 166.88086 286.99219 L 168.30469 288.43164 C 167.47269 289.34364 166.51278 290 164.80078 290 C 162.22478 290 160.33594 288.00036 160.33594 285.56836 L 160.33594 285.53516 C 160.33594 283.08716 162.20803 281.07227 164.83203 281.07227 z M 173.47266 281.07227 C 176.33665 281.07227 177.64844 283.29652 177.64844 285.72852 C 177.64844 285.92052 177.63123 286.12719 177.61523 286.36719 L 171.64844 286.36719 C 171.88844 287.47119 172.65614 288.04883 173.74414 288.04883 C 174.56014 288.04883 175.13622 287.79197 175.82422 287.16797 L 177.2168 288.40039 C 176.4008 289.40839 175.26489 290 173.71289 290 C 171.13689 290 169.23242 288.19236 169.23242 285.56836 L 169.23242 285.53516 C 169.23242 283.08716 170.97666 281.07227 173.47266 281.07227 z M 184.40039 281.07227 C 186.25639 281.07227 187.3125 282.27186 187.3125 284.25586 L 187.3125 289.80859 L 184.88086 289.80859 L 184.88086 285.02344 C 184.88086 283.87144 184.3522 283.2793 183.4082 283.2793 C 182.4642 283.2793 181.88867 283.87144 181.88867 285.02344 L 181.88867 289.80859 L 179.45508 289.80859 L 179.45508 281.23242 L 181.88867 281.23242 L 181.88867 282.44727 C 182.44867 281.72727 183.18439 281.07227 184.40039 281.07227 z M 193.24805 281.07227 C 196.11204 281.07227 197.42383 283.29652 197.42383 285.72852 C 197.42383 285.92052 197.40858 286.12719 197.39258 286.36719 L 191.42383 286.36719 C 191.66383 287.47119 192.43153 288.04883 193.51953 288.04883 C 194.33553 288.04883 194.91161 287.79197 195.59961 287.16797 L 196.99219 288.40039 C 196.17619 289.40839 195.04028 290 193.48828 290 C 190.91228 290 189.00781 288.19236 189.00781 285.56836 L 189.00781 285.53516 C 189.00781 283.08716 190.75205 281.07227 193.24805 281.07227 z M 173.47266 283.02344 C 172.44866 283.02344 171.80723 283.74366 171.61523 284.84766 L 175.2793 284.84766 C 175.1353 283.75966 174.49666 283.02344 173.47266 283.02344 z M 193.24805 283.02344 C 192.22405 283.02344 191.58458 283.74366 191.39258 284.84766 L 195.05664 284.84766 C 194.91264 283.75966 194.27205 283.02344 193.24805 283.02344 z " />
    <path
       id="path59"
       style="fill:#ffffff;stroke-linejoin:round"
       d="M 255 170 C 252.2387 170.00026 250.00026 172.2387 250 175 L 250 315 C 250.00026 317.7613 252.2387 319.99974 255 320 L 345 320 C 347.7613 319.99974 349.99974 317.7613 350 315 L 350 175 C 349.99974 172.2387 347.7613 170.00026 345 170 L 255 170 z M 255 172.5 L 345 172.5 C 346.38065 172.50014 347.49986 173.61935 347.5 175 L 347.5 265 C 347.49986 266.38065 346.38065 267.49986 345 267.5 L 340 267.5 L 260 267.5 L 255 267.5 C 253.61935 267.49986 252.50014 266.38065 252.5 265 L 252.5 175 C 252.50014 173.61935 253.61935 172.50014 255 172.5 z M 264.36719 278.44727 C 266.01519 278.44727 267.37534 278.95909 268.52734 279.87109 L 267.24805 281.72852 C 266.24005 281.04052 265.29594 280.62305 264.33594 280.62305 C 263.37594 280.62305 262.89648 281.03961 262.89648 281.59961 L 262.89648 281.63281 C 262.89648 282.38481 263.3765 282.59152 265.3125 283.10352 C 267.5845 283.71152 268.86328 284.51285 268.86328 286.46484 L 268.86328 286.49609 C 268.86328 288.72009 267.16795 289.96875 264.75195 289.96875 C 263.03995 289.96875 261.344 289.39178 260 288.17578 L 261.45508 286.43164 C 262.47908 287.26364 263.52078 287.79297 264.80078 287.79297 C 265.82478 287.79297 266.41602 287.39233 266.41602 286.73633 L 266.41602 286.70312 C 266.41602 286.07913 266.03215 285.7433 264.16016 285.2793 C 261.88816 284.7193 260.44727 284.06347 260.44727 281.85547 L 260.44727 281.82422 C 260.44727 279.79222 262.06319 278.44727 264.36719 278.44727 z M 318.04883 278.44727 C 320.35283 278.44727 321.9043 279.8083 321.9043 281.9043 L 321.9043 281.93555 C 321.9043 283.82354 320.94494 284.71949 318.96094 286.27148 L 317.13672 287.67969 L 322.01562 287.67969 L 322.01562 289.80859 L 313.72852 289.80859 L 313.72852 287.85547 L 317.45508 284.80078 C 318.86308 283.64878 319.39258 283.03933 319.39258 282.11133 C 319.39258 281.15133 318.78467 280.65625 317.88867 280.65625 C 317.00867 280.65625 316.43161 281.13616 315.59961 282.16016 L 313.87109 280.76758 C 314.97509 279.27958 316.04883 278.44727 318.04883 278.44727 z M 328.01562 278.44727 C 330.31962 278.44727 331.87109 279.8083 331.87109 281.9043 L 331.87109 281.93555 C 331.87109 283.82354 330.91173 284.71949 328.92773 286.27148 L 327.10352 287.67969 L 331.98438 287.67969 L 331.98438 289.80859 L 323.69531 289.80859 L 323.69531 287.85547 L 327.42383 284.80078 C 328.83183 283.64878 329.35938 283.03933 329.35938 282.11133 C 329.35938 281.15133 328.75147 280.65625 327.85547 280.65625 C 326.97547 280.65625 326.40036 281.13616 325.56836 282.16016 L 323.83984 280.76758 C 324.94384 279.27958 326.01563 278.44727 328.01562 278.44727 z M 274.83203 281.07227 C 276.44803 281.07227 277.43986 281.61572 278.25586 282.51172 L 276.76758 284.11133 C 276.20758 283.53533 275.69641 283.16797 274.81641 283.16797 C 273.60041 283.16797 272.73633 284.22391 272.73633 285.50391 L 272.73633 285.53516 C 272.73633 286.86315 273.58411 287.9043 274.91211 287.9043 C 275.72811 287.9043 276.28886 287.55219 276.88086 286.99219 L 278.30469 288.43164 C 277.47269 289.34364 276.51278 290 274.80078 290 C 272.22478 290 270.33594 288.00036 270.33594 285.56836 L 270.33594 285.53516 C 270.33594 283.08716 272.20803 281.07227 274.83203 281.07227 z M 283.47266 281.07227 C 286.33665 281.07227 287.64844 283.29652 287.64844 285.72852 C 287.64844 285.92052 287.63123 286.12719 287.61523 286.36719 L 281.64844 286.36719 C 281.88844 287.47119 282.65614 288.04883 283.74414 288.04883 C 284.56014 288.04883 285.13622 287.79197 285.82422 287.16797 L 287.2168 288.40039 C 286.4008 289.40839 285.26489 290 283.71289 290 C 281.13689 290 279.23242 288.19236 279.23242 285.56836 L 279.23242 285.53516 C 279.23242 283.08716 280.97666 281.07227 283.47266 281.07227 z M 294.40039 281.07227 C 296.25639 281.07227 297.3125 282.27186 297.3125 284.25586 L 297.3125 289.80859 L 294.88086 289.80859 L 294.88086 285.02344 C 294.88086 283.87144 294.3522 283.2793 293.4082 283.2793 C 292.4642 283.2793 291.88867 283.87144 291.88867 285.02344 L 291.88867 289.80859 L 289.45508 289.80859 L 289.45508 281.23242 L 291.88867 281.23242 L 291.88867 282.44727 C 292.44867 281.72727 293.18439 281.07227 294.40039 281.07227 z M 303.24805 281.07227 C 306.11204 281.07227 307.42383 283.29652 307.42383 285.72852 C 307.42383 285.92052 307.40858 286.12719 307.39258 286.36719 L 301.42383 286.36719 C 301.66383 287.47119 302.43153 288.04883 303.51953 288.04883 C 304.33553 288.04883 304.91161 287.79197 305.59961 287.16797 L 306.99219 288.40039 C 306.17619 289.40839 305.04028 290 303.48828 290 C 300.91228 290 299.00781 288.19236 299.00781 285.56836 L 299.00781 285.53516 C 299.00781 283.08716 300.75205 281.07227 303.24805 281.07227 z M 283.47266 283.02344 C 282.44866 283.02344 281.80723 283.74366 281.61523 284.84766 L 285.2793 284.84766 C 285.1353 283.75966 284.49666 283.02344 283.47266 283.02344 z M 303.24805 283.02344 C 302.22405 283.02344 301.58458 283.74366 301.39258 284.84766 L 305.05664 284.84766 C 304.91264 283.75966 304.27205 283.02344 303.24805 283.02344 z " />
    <path
       id="path60"
       style="fill:#ffffff;stroke-linejoin:round"
       d="M 365 170 C 362.2387 170.00026 360.00026 172.2387 360 175 L 360 315 C 360.00026 317.7613 362.2387 319.99974 365 320 L 455 320 C 457.7613 319.99974 459.99974 317.7613 460 315 L 460 175 C 459.99974 172.2387 457.7613 170.00026 455 170 L 365 170 z M 365 172.5 L 455 172.5 C 456.38065 172.50014 457.49986 173.61935 457.5 175 L 457.5 265 C 457.49986 266.38065 456.38065 267.49986 455 267.5 L 450 267.5 L 370 267.5 L 365 267.5 C 363.61935 267.49986 362.50014 266.38065 362.5 265 L 362.5 175 C 362.50014 173.61935 363.61935 172.50014 365 172.5 z M 374.36719 278.44727 C 376.01519 278.44727 377.37534 278.95909 378.52734 279.87109 L 377.24805 281.72852 C 376.24005 281.04052 375.29594 280.62305 374.33594 280.62305 C 373.37594 280.62305 372.89648 281.03961 372.89648 281.59961 L 372.89648 281.63281 C 372.89648 282.38481 373.3765 282.59152 375.3125 283.10352 C 377.5845 283.71152 378.86328 284.51285 378.86328 286.46484 L 378.86328 286.49609 C 378.86328 288.72009 377.16795 289.96875 374.75195 289.96875 C 373.03995 289.96875 371.344 289.39178 370 288.17578 L 371.45508 286.43164 C 372.47908 287.26364 373.52078 287.79297 374.80078 287.79297 C 375.82478 287.79297 376.41602 287.39233 376.41602 286.73633 L 376.41602 286.70312 C 376.41602 286.07913 376.03215 285.7433 374.16016 285.2793 C 371.88816 284.7193 370.44727 284.06347 370.44727 281.85547 L 370.44727 281.82422 C 370.44727 279.79222 372.06319 278.44727 374.36719 278.44727 z M 428.04883 278.44727 C 430.35283 278.44727 431.9043 279.8083 431.9043 281.9043 L 431.9043 281.93555 C 431.9043 283.82354 430.94494 284.71949 428.96094 286.27148 L 427.13672 287.67969 L 432.01562 287.67969 L 432.01562 289.80859 L 423.72852 289.80859 L 423.72852 287.85547 L 427.45508 284.80078 C 428.86308 283.64878 429.39258 283.03933 429.39258 282.11133 C 429.39258 281.15133 428.78467 280.65625 427.88867 280.65625 C 427.00867 280.65625 426.43161 281.13616 425.59961 282.16016 L 423.87109 280.76758 C 424.97509 279.27958 426.04883 278.44727 428.04883 278.44727 z M 434.17578 278.60742 L 441.74414 278.60742 L 441.74414 280.46484 L 438.91211 283.16797 C 440.43211 283.42397 441.91992 284.20869 441.91992 286.30469 L 441.91992 286.33594 C 441.91992 288.44794 440.38467 290 437.88867 290 C 435.85667 290 434.47953 289.21645 433.51953 288.06445 L 435.2168 286.44727 C 435.9848 287.32726 436.76792 287.79297 437.91992 287.79297 C 438.86392 287.79297 439.50391 287.26364 439.50391 286.43164 L 439.50391 286.40039 C 439.50391 285.48839 438.7045 284.97656 437.3125 284.97656 L 436.28711 284.97656 L 435.9043 283.4082 L 438.57617 280.7207 L 434.17578 280.7207 L 434.17578 278.60742 z M 384.83203 281.07227 C 386.44803 281.07227 387.43986 281.61572 388.25586 282.51172 L 386.76758 284.11133 C 386.20758 283.53533 385.69641 283.16797 384.81641 283.16797 C 383.60041 283.16797 382.73633 284.22391 382.73633 285.50391 L 382.73633 285.53516 C 382.73633 286.86315 383.58411 287.9043 384.91211 287.9043 C 385.72811 287.9043 386.28886 287.55219 386.88086 286.99219 L 388.30469 288.43164 C 387.47269 289.34364 386.51278 290 384.80078 290 C 382.22478 290 380.33594 288.00036 380.33594 285.56836 L 380.33594 285.53516 C 380.33594 283.08716 382.20803 281.07227 384.83203 281.07227 z M 393.47266 281.07227 C 396.33665 281.07227 397.64844 283.29652 397.64844 285.72852 C 397.64844 285.92052 397.63123 286.12719 397.61523 286.36719 L 391.64844 286.36719 C 391.88844 287.47119 392.65614 288.04883 393.74414 288.04883 C 394.56014 288.04883 395.13622 287.79197 395.82422 287.16797 L 397.2168 288.40039 C 396.4008 289.40839 395.26489 290 393.71289 290 C 391.13689 290 389.23242 288.19236 389.23242 285.56836 L 389.23242 285.53516 C 389.23242 283.08716 390.97666 281.07227 393.47266 281.07227 z M 404.40039 281.07227 C 406.25639 281.07227 407.3125 282.27186 407.3125 284.25586 L 407.3125 289.80859 L 404.88086 289.80859 L 404.88086 285.02344 C 404.88086 283.87144 404.3522 283.2793 403.4082 283.2793 C 402.4642 283.2793 401.88867 283.87144 401.88867 285.02344 L 401.88867 289.80859 L 399.45508 289.80859 L 399.45508 281.23242 L 401.88867 281.23242 L 401.88867 282.44727 C 402.44867 281.72727 403.18439 281.07227 404.40039 281.07227 z M 413.24805 281.07227 C 416.11204 281.07227 417.42383 283.29652 417.42383 285.72852 C 417.42383 285.92052 417.40858 286.12719 417.39258 286.36719 L 411.42383 286.36719 C 411.66383 287.47119 412.43153 288.04883 413.51953 288.04883 C 414.33553 288.04883 414.91161 287.79197 415.59961 287.16797 L 416.99219 288.40039 C 416.17619 289.40839 415.04028 290 413.48828 290 C 410.91228 290 409.00781 288.19236 409.00781 285.56836 L 409.00781 285.53516 C 409.00781 283.08716 410.75205 281.07227 413.24805 281.07227 z M 393.47266 283.02344 C 392.44866 283.02344 391.80723 283.74366 391.61523 284.84766 L 395.2793 284.84766 C 395.1353 283.75966 394.49666 283.02344 393.47266 283.02344 z M 413.24805 283.02344 C 412.22405 283.02344 411.58458 283.74366 411.39258 284.84766 L 415.05664 284.84766 C 414.91264 283.75966 414.27205 283.02344 413.24805 283.02344 z " />
    <path
       id="path61"
       style="fill:#ffffff;stroke-linejoin:round"
       d="M 475 170 C 472.2387 170.00026 470.00026 172.2387 470 175 L 470 315 C 470.00026 317.7613 472.2387 319.99974 475 320 L 565 320 C 567.7613 319.99974 569.99974 317.7613 570 315 L 570 175 C 569.99974 172.2387 567.7613 170.00026 565 170 L 475 170 z M 475 172.5 L 565 172.5 C 566.38065 172.50014 567.49986 173.61935 567.5 175 L 567.5 265 C 567.49986 266.38065 566.38065 267.49986 565 267.5 L 560 267.5 L 480 267.5 L 475 267.5 C 473.61935 267.49986 472.50014 266.38065 472.5 265 L 472.5 175 C 472.50014 173.61935 473.61935 172.50014 475 172.5 z M 484.36719 278.44727 C 486.01519 278.44727 487.37534 278.95909 488.52734 279.87109 L 487.24805 281.72852 C 486.24005 281.04052 485.29594 280.62305 484.33594 280.62305 C 483.37594 280.62305 482.89648 281.03961 482.89648 281.59961 L 482.89648 281.63281 C 482.89648 282.38481 483.3765 282.59152 485.3125 283.10352 C 487.5845 283.71152 488.86328 284.51285 488.86328 286.46484 L 488.86328 286.49609 C 488.86328 288.72009 487.16795 289.96875 484.75195 289.96875 C 483.03995 289.96875 481.344 289.39178 480 288.17578 L 481.45508 286.43164 C 482.47908 287.26364 483.52078 287.79297 484.80078 287.79297 C 485.82478 287.79297 486.41602 287.39233 486.41602 286.73633 L 486.41602 286.70312 C 486.41602 286.07913 486.03215 285.7433 484.16016 285.2793 C 481.88816 284.7193 480.44727 284.06347 480.44727 281.85547 L 480.44727 281.82422 C 480.44727 279.79222 482.06319 278.44727 484.36719 278.44727 z M 538.04883 278.44727 C 540.35283 278.44727 541.9043 279.8083 541.9043 281.9043 L 541.9043 281.93555 C 541.9043 283.82354 540.94494 284.71949 538.96094 286.27148 L 537.13672 287.67969 L 542.01562 287.67969 L 542.01562 289.80859 L 533.72852 289.80859 L 533.72852 287.85547 L 537.45508 284.80078 C 538.86308 283.64878 539.39258 283.03933 539.39258 282.11133 C 539.39258 281.15133 538.78467 280.65625 537.88867 280.65625 C 537.00867 280.65625 536.43161 281.13616 535.59961 282.16016 L 533.87109 280.76758 C 534.97509 279.27958 536.04883 278.44727 538.04883 278.44727 z M 549.3125 278.52734 L 551.39258 278.52734 L 551.39258 285.39258 L 552.89648 285.39258 L 552.89648 287.39258 L 551.39258 287.39258 L 551.39258 289.80859 L 549.03906 289.80859 L 549.03906 287.39258 L 543.56836 287.39258 L 543.16797 285.64844 L 549.3125 278.52734 z M 494.83203 281.07227 C 496.44803 281.07227 497.43986 281.61572 498.25586 282.51172 L 496.76758 284.11133 C 496.20758 283.53533 495.69641 283.16797 494.81641 283.16797 C 493.60041 283.16797 492.73633 284.22391 492.73633 285.50391 L 492.73633 285.53516 C 492.73633 286.86315 493.58411 287.9043 494.91211 287.9043 C 495.72811 287.9043 496.28886 287.55219 496.88086 286.99219 L 498.30469 288.43164 C 497.47269 289.34364 496.51278 290 494.80078 290 C 492.22478 290 490.33594 288.00036 490.33594 285.56836 L 490.33594 285.53516 C 490.33594 283.08716 492.20803 281.07227 494.83203 281.07227 z M 503.47266 281.07227 C 506.33665 281.07227 507.64844 283.29652 507.64844 285.72852 C 507.64844 285.92052 507.63123 286.12719 507.61523 286.36719 L 501.64844 286.36719 C 501.88844 287.47119 502.65614 288.04883 503.74414 288.04883 C 504.56014 288.04883 505.13622 287.79197 505.82422 287.16797 L 507.2168 288.40039 C 506.4008 289.40839 505.26489 290 503.71289 290 C 501.13689 290 499.23242 288.19236 499.23242 285.56836 L 499.23242 285.53516 C 499.23242 283.08716 500.97666 281.07227 503.47266 281.07227 z M 514.40039 281.07227 C 516.25639 281.07227 517.3125 282.27186 517.3125 284.25586 L 517.3125 289.80859 L 514.88086 289.80859 L 514.88086 285.02344 C 514.88086 283.87144 514.3522 283.2793 513.4082 283.2793 C 512.4642 283.2793 511.88867 283.87144 511.88867 285.02344 L 511.88867 289.80859 L 509.45508 289.80859 L 509.45508 281.23242 L 511.88867 281.23242 L 511.88867 282.44727 C 512.44867 281.72727 513.18439 281.07227 514.40039 281.07227 z M 523.24805 281.07227 C 526.11204 281.07227 527.42383 283.29652 527.42383 285.72852 C 527.42383 285.92052 527.40858 286.12719 527.39258 286.36719 L 521.42383 286.36719 C 521.66383 287.47119 522.43153 288.04883 523.51953 288.04883 C 524.33553 288.04883 524.91161 287.79197 525.59961 287.16797 L 526.99219 288.40039 C 526.17619 289.40839 525.04028 290 523.48828 290 C 520.91228 290 519.00781 288.19236 519.00781 285.56836 L 519.00781 285.53516 C 519.00781 283.08716 520.75205 281.07227 523.24805 281.07227 z M 549.03906 281.9043 L 546.06445 285.39258 L 549.03906 285.39258 L 549.03906 281.9043 z M 503.47266 283.02344 C 502.44866 283.02344 501.80723 283.74366 501.61523 284.84766 L 505.2793 284.84766 C 505.1353 283.75966 504.49666 283.02344 503.47266 283.02344 z M 523.24805 283.02344 C 522.22405 283.02344 521.58458 283.74366 521.39258 284.84766 L 525.05664 284.84766 C 524.91264 283.75966 524.27205 283.02344 523.24805 283.02344 z " />
  </g>
</svg>
