<?xml version="1.0" encoding="UTF-8" standalone="no"?>
<!-- Created with Inkscape (http://www.inkscape.org/) -->

<svg
   width="500"
   height="310"
   viewBox="0 0 500 310"
   version="1.1"
   id="svg1"
   sodipodi:docname="Unmissables.svg"
   inkscape:version="1.3.2 (091e20e, 2023-11-25, custom)"
   xmlns:inkscape="http://www.inkscape.org/namespaces/inkscape"
   xmlns:sodipodi="http://sodipodi.sourceforge.net/DTD/sodipodi-0.dtd"
   xmlns="http://www.w3.org/2000/svg"
   xmlns:svg="http://www.w3.org/2000/svg">
  <sodipodi:namedview
     id="namedview1"
     pagecolor="#505050"
     bordercolor="#eeeeee"
     borderopacity="1"
     inkscape:showpageshadow="0"
     inkscape:pageopacity="0"
     inkscape:pagecheckerboard="0"
     inkscape:deskcolor="#505050"
     inkscape:document-units="px"
     showguides="true"
     inkscape:zoom="0.7625"
     inkscape:cx="237.37705"
     inkscape:cy="152.78689"
     inkscape:window-width="1304"
     inkscape:window-height="745"
     inkscape:window-x="-8"
     inkscape:window-y="-8"
     inkscape:window-maximized="1"
     inkscape:current-layer="layer1">
    <sodipodi:guide
       position="0,250"
       orientation="0,1"
       id="guide1"
       inkscape:locked="false"
       inkscape:label=""
       inkscape:color="rgb(0,134,229)" />
    <sodipodi:guide
       position="110,310"
       orientation="-1,0"
       id="guide2"
       inkscape:locked="false"
       inkscape:label=""
       inkscape:color="rgb(0,134,229)" />
    <sodipodi:guide
       position="0,-40"
       orientation="0,1"
       id="guide3"
       inkscape:locked="false"
       inkscape:label=""
       inkscape:color="rgb(0,134,229)" />
    <sodipodi:guide
       position="540,310"
       orientation="-1,0"
       id="guide4"
       inkscape:locked="false"
       inkscape:label=""
       inkscape:color="rgb(0,134,229)" />
    <sodipodi:guide
       position="240,310"
       orientation="-1,0"
       id="guide5"
       inkscape:locked="false"
       inkscape:label=""
       inkscape:color="rgb(0,134,229)" />
    <sodipodi:guide
       position="0,120"
       orientation="0,1"
       id="guide6"
       inkscape:locked="false"
       inkscape:label=""
       inkscape:color="rgb(0,134,229)" />
    <sodipodi:guide
       position="0,235"
       orientation="0,1"
       id="guide10"
       inkscape:locked="false"
       inkscape:label=""
       inkscape:color="rgb(0,134,229)" />
    <sodipodi:guide
       position="0,215"
       orientation="0,1"
       id="guide11"
       inkscape:locked="false"
       inkscape:label=""
       inkscape:color="rgb(0,134,229)" />
    <sodipodi:guide
       position="0,195"
       orientation="0,1"
       id="guide12"
       inkscape:locked="false"
       inkscape:label=""
       inkscape:color="rgb(0,134,229)" />
    <sodipodi:guide
       position="0,175"
       orientation="0,1"
       id="guide13"
       inkscape:locked="false"
       inkscape:label=""
       inkscape:color="rgb(0,134,229)" />
    <sodipodi:guide
       position="0,155"
       orientation="0,1"
       id="guide14"
       inkscape:locked="false"
       inkscape:label=""
       inkscape:color="rgb(0,134,229)" />
    <sodipodi:guide
       position="0,135"
       orientation="0,1"
       id="guide15"
       inkscape:locked="false"
       inkscape:label=""
       inkscape:color="rgb(0,134,229)" />
    <sodipodi:guide
       position="260,310"
       orientation="-1,0"
       id="guide16"
       inkscape:locked="false"
       inkscape:label=""
       inkscape:color="rgb(0,134,229)" />
    <sodipodi:guide
       position="0,285"
       orientation="0,1"
       id="guide24"
       inkscape:locked="false"
       inkscape:label=""
       inkscape:color="rgb(0,134,229)" />
    <sodipodi:guide
       position="330,310"
       orientation="-1,0"
       id="guide25"
       inkscape:locked="false"
       inkscape:label=""
       inkscape:color="rgb(0,134,229)" />
    <sodipodi:guide
       position="120,310"
       orientation="-1,0"
       id="guide26"
       inkscape:locked="false"
       inkscape:label=""
       inkscape:color="rgb(0,134,229)" />
    <sodipodi:guide
       position="0,110"
       orientation="0,1"
       id="guide27"
       inkscape:locked="false"
       inkscape:label=""
       inkscape:color="rgb(0,134,229)" />
    <sodipodi:guide
       position="230,310"
       orientation="-1,0"
       id="guide28"
       inkscape:locked="false"
       inkscape:label=""
       inkscape:color="rgb(0,134,229)" />
  </sodipodi:namedview>
  <defs
     id="defs1" />
  <g
     inkscape:label="Calque 1"
     inkscape:groupmode="layer"
     id="layer1">
    <path
       id="path25"
       style="-inkscape-font-specification:'Gotham Bold';fill:#ffffff;stroke-linejoin:round"
       d="M 333.75 27.5 C 333.05969 27.500069 332.50007 28.059696 332.5 28.75 L 332.5 35.416016 C 332.50024 35.460396 332.50281 35.504726 332.50781 35.548828 L 335.10742 60 L 115 60 C 112.2388 60.000276 110.00028 62.23881 110 65 L 110 345 C 110.00028 347.7612 112.2388 349.99972 115 350 L 535 350 C 537.7612 349.99972 539.99972 347.7612 540 345 L 540 175 L 379.49805 175 L 381.625 155 L 540 155 L 540 135 L 383.75195 135 L 385.87891 115 L 540 115 L 540 95 L 388.00391 95 L 390.13086 75 L 540 75 L 540 65 C 539.99972 62.238788 537.76122 60.000276 535 60 L 391.72656 60 L 394.32617 35.548828 C 394.33117 35.504728 394.33398 35.460388 394.33398 35.416016 L 394.33398 28.75 C 394.33392 28.059696 393.77429 27.500069 393.08398 27.5 L 333.75 27.5 z M 335 30 L 391.83398 30 L 391.83398 35.349609 L 389.21289 60 L 387.61719 75 L 385.49023 95 L 383.36523 115 L 381.23828 135 L 379.11133 155 L 376.98438 175 L 376.29297 181.5 L 350.54102 181.5 L 349.84961 175 L 347.72266 155 L 345.5957 135 L 343.46875 115 L 341.34375 95 L 339.2168 75 L 337.62109 60 L 335 35.349609 L 335 30 z M 115 62.5 L 235 62.5 C 236.3806 62.500138 237.49986 63.619404 237.5 65 L 237.5 70 L 237.5 185 C 237.49986 186.3806 236.3806 187.49986 235 187.5 L 120 187.5 L 115 187.5 C 113.6194 187.49986 112.50014 186.3806 112.5 185 L 112.5 65 C 112.50014 63.619404 113.6194 62.500138 115 62.5 z M 262.5 75 L 336.70312 75 L 338.83008 95 L 262.5 95 C 261.1194 94.999862 260.00014 93.880604 260 92.5 L 260 77.5 C 260.00014 76.119396 261.1194 75.000138 262.5 75 z M 262.5 115 L 340.95508 115 L 343.08203 135 L 262.5 135 C 261.1194 134.99986 260.00014 133.8806 260 132.5 L 260 117.5 C 260.00014 116.1194 261.1194 115.00014 262.5 115 z M 262.5 155 L 345.20898 155 L 347.33594 175 L 262.5 175 C 261.1194 174.99986 260.00014 173.8806 260 172.5 L 260 157.5 C 260.00014 156.1194 261.1194 155.00014 262.5 155 z M 164.99414 200 L 168.08789 200 L 168.08789 202.60938 L 164.99414 202.60938 L 164.99414 200 z M 201.44141 200 L 204.38086 200 L 204.38086 205.24023 C 205.09628 204.25412 206.06253 203.55859 207.60938 203.55859 C 210.02632 203.55859 212.32812 205.45299 212.32812 208.91406 L 212.32812 208.95312 C 212.32813 212.41419 210.06499 214.30859 207.60938 214.30859 C 206.04319 214.30859 205.07694 213.59315 204.38086 212.76172 L 204.38086 214.11523 L 201.44141 214.11523 L 201.44141 200 z M 214.62891 200 L 217.56836 200 L 217.56836 214.11523 L 214.62891 214.11523 L 214.62891 200 z M 120 200.58008 L 122.97852 200.58008 L 122.97852 208.23633 C 122.97852 210.45992 124.0596 211.58203 125.89648 211.58203 C 127.73336 211.58203 128.81641 210.49957 128.81641 208.33398 L 128.81641 200.58008 L 131.79492 200.58008 L 131.79492 208.2168 C 131.79492 212.31594 129.49446 214.32812 125.85938 214.32812 C 122.22429 214.32812 120 212.31692 120 208.31445 L 120 200.58008 z M 140.49609 203.55859 C 142.73902 203.55859 144.01562 205.00864 144.01562 207.40625 L 144.01562 214.11523 L 141.07617 214.11523 L 141.07617 208.33398 C 141.07617 206.94182 140.43767 206.22656 139.29688 206.22656 C 138.15608 206.22656 137.46094 206.94182 137.46094 208.33398 L 137.46094 214.11523 L 134.52148 214.11523 L 134.52148 203.75195 L 137.46094 203.75195 L 137.46094 205.2207 C 138.13768 204.3506 139.02659 203.55859 140.49609 203.55859 z M 152.56055 203.55859 C 153.93337 203.55859 154.93907 204.13771 155.48047 205.20117 C 156.38924 204.11838 157.47327 203.55859 158.88477 203.55859 C 161.06969 203.55859 162.38281 204.8729 162.38281 207.36719 L 162.38281 214.11523 L 159.44531 214.11523 L 159.44531 208.33398 C 159.44531 206.94182 158.82674 206.22656 157.72461 206.22656 C 156.62248 206.22656 155.94531 206.94182 155.94531 208.33398 L 155.94531 214.11523 L 153.00586 214.11523 L 153.00586 208.33398 C 153.00586 206.94182 152.38728 206.22656 151.28516 206.22656 C 150.18303 206.22656 149.50586 206.94182 149.50586 208.33398 L 149.50586 214.11523 L 146.56641 214.11523 L 146.56641 203.75195 L 149.50586 203.75195 L 149.50586 205.2207 C 150.1826 204.3506 151.07171 203.55859 152.56055 203.55859 z M 224.95312 203.55859 C 228.41419 203.55859 230 206.24459 230 209.18359 C 230 209.41562 229.98027 209.667 229.96094 209.95703 L 222.75 209.95703 C 223.04003 211.29119 223.96838 211.98828 225.2832 211.98828 C 226.26932 211.98828 226.96545 211.67792 227.79688 210.92383 L 229.47852 212.41406 C 228.4924 213.6322 227.11969 214.34766 225.24414 214.34766 C 222.13111 214.34766 219.83008 212.16127 219.83008 208.99023 L 219.83008 208.95312 C 219.83008 205.99478 221.93677 203.55859 224.95312 203.55859 z M 174.27539 203.5957 C 175.59021 203.5957 177.00178 204.04083 178.14258 204.79492 L 177.02148 206.82617 C 175.9967 206.22677 174.97088 205.85938 174.2168 205.85938 C 173.50138 205.85938 173.13477 206.16817 173.13477 206.57422 L 173.13477 206.61328 C 173.13477 207.15468 174.12072 207.50157 175.24219 207.84961 C 176.69236 208.31366 178.375 209.02894 178.375 210.92383 L 178.375 210.96289 C 178.375 213.26382 176.65308 214.30859 174.41016 214.30859 C 172.94065 214.30859 171.35505 213.82498 169.96289 212.74219 L 171.2207 210.80859 C 172.3615 211.64002 173.50217 212.04688 174.48828 212.04688 C 175.33905 212.04687 175.72461 211.73749 175.72461 211.27344 L 175.72461 211.23438 C 175.72461 210.5963 174.71892 210.40253 173.57812 210.03516 C 172.12796 209.62911 170.48438 208.93278 170.48438 206.92188 L 170.48438 206.88281 C 170.48437 204.77523 172.18715 203.5957 174.27539 203.5957 z M 183.78906 203.5957 C 185.10388 203.5957 186.51545 204.04083 187.65625 204.79492 L 186.5332 206.82617 C 185.50842 206.22677 184.48456 205.85938 183.73047 205.85938 C 183.01505 205.85938 182.64648 206.16817 182.64648 206.57422 L 182.64648 206.61328 C 182.64648 207.15468 183.6344 207.50157 184.75586 207.84961 C 186.20603 208.31366 187.88672 209.02894 187.88672 210.92383 L 187.88672 210.96289 C 187.88672 213.26382 186.16676 214.30859 183.92383 214.30859 C 182.45432 214.30859 180.86872 213.82498 179.47656 212.74219 L 180.73242 210.80859 C 181.87322 211.64002 183.01389 212.04688 184 212.04688 C 184.85077 212.04687 185.23828 211.73749 185.23828 211.27344 L 185.23828 211.23438 C 185.23828 210.5963 184.2326 210.40253 183.0918 210.03516 C 181.64163 209.62911 179.99805 208.93278 179.99805 206.92188 L 179.99805 206.88281 C 179.99805 204.77523 181.70082 203.5957 183.78906 203.5957 z M 194.28711 203.63477 C 195.9113 203.63477 197.03302 204.04083 197.78711 204.79492 C 198.56053 205.56835 198.9082 206.7094 198.9082 208.10156 L 198.9082 214.11523 L 196.06641 214.11523 L 196.06641 212.99414 C 195.35099 213.7869 194.38376 214.30859 192.93359 214.30859 C 190.9807 214.30859 189.37695 213.20563 189.37695 211.13672 L 189.37695 211.09766 C 189.37695 208.85473 191.09712 207.79297 193.55273 207.79297 C 194.61619 207.79297 195.33185 207.96543 196.08594 208.2168 L 196.08594 208.04297 C 196.08594 206.80549 195.33083 206.14844 193.86133 206.14844 C 192.72053 206.14844 191.94744 206.34161 191 206.70898 L 190.26562 204.4668 C 191.40642 203.98341 192.52757 203.63477 194.28711 203.63477 z M 165.07227 203.75195 L 168.00977 203.75195 L 168.00977 214.11523 L 165.07227 214.11523 L 165.07227 203.75195 z M 224.95312 205.91602 C 223.71565 205.91602 222.94296 206.78694 222.71094 208.12109 L 227.13867 208.12109 C 226.96465 206.80627 226.1906 205.91602 224.95312 205.91602 z M 206.85547 206.05273 C 205.48264 206.05273 204.3418 207.1932 204.3418 208.91406 L 204.3418 208.95312 C 204.3418 210.67399 205.48264 211.81445 206.85547 211.81445 C 208.22829 211.81445 209.38867 210.69333 209.38867 208.95312 L 209.38867 208.91406 C 209.38867 207.1932 208.22829 206.05273 206.85547 206.05273 z M 194.24805 209.55273 C 192.99123 209.55273 192.21875 210.05431 192.21875 210.98242 L 192.21875 211.02148 C 192.21875 211.81424 192.87678 212.27734 193.82422 212.27734 C 195.21638 212.27734 196.125 211.54373 196.125 210.46094 L 196.125 209.9375 C 195.60294 209.70547 194.96346 209.55273 194.24805 209.55273 z M 337.66602 210 L 389.16602 210 L 389.16602 260.83398 L 337.66602 260.83398 L 337.66602 210 z " />
  </g>
</svg>
